<?xml version="1.0" encoding="UTF-8"?>
<svg width="700pt" height="700pt" version="1.1" viewBox="0 0 700 700" xmlns="http://www.w3.org/2000/svg">
 <path d="m159.17 218.55c-13.984 1.6055-27.113 6.4023-36.648 15.523-9.7812 9.4062-16.117 23.785-16.117 44.602 0 20.848 6.3242 35.234 16.094 44.578 9.5781 9.1211 22.707 13.938 36.676 15.551v-120.25zm415.21-1.8906c10.754 3.6914 20.02 9.7969 27.02 17.48 9.1953 10.086 14.59 22.891 14.59 36.656 0 13.75-5.3906 26.555-14.59 36.648-7.0039 7.6797-16.266 13.785-27.012 17.48l0.011719 167c0 6.1836-5.0195 11.203-11.203 11.203-2.043 0-3.9492-0.54297-5.5938-1.4961l-289.23-139.79h-6.9766l17.449 131.27c0.79297 6.1055-3.5195 11.719-9.6289 12.516l-1.4414 0.09375-56.043 0.039063c-6.0039 0-10.906-4.7227-11.191-10.656l-17.719-133.26h-12.441c-23.176 0-46.578-6.4414-63.332-22.48-13.996-13.441-23.051-33.137-23.051-60.684 0-27.602 9.0547-47.285 23.051-60.684 16.809-16.039 40.188-22.477 63.332-22.477h98.008l289.95-140.15c5.5625-2.6797 12.242-0.35156 14.922 5.2109 0.76172 1.5664 1.1172 3.2227 1.1172 4.8555l0.007813 151.23zm0.007812 83.941c4.0195-2.2305 7.5586-5.0117 10.465-8.2031 5.5039-6.0312 8.7305-13.586 8.7305-21.602 0-8.0117-3.2266-15.57-8.7305-21.609-2.9102-3.1953-6.4375-5.9805-10.465-8.207zm-292.33 43.031 269.93 130.46v-390.84l-269.93 130.46zm-76.719 18.207 16.152 121.5h33.52l-16.152-121.5zm54.316-143.92h-78.082v121.51h78.082z"/>
</svg>
