<?xml version="1.0" encoding="UTF-8"?>
<svg width="700pt" height="700pt" version="1.1" viewBox="0 0 700 700" xmlns="http://www.w3.org/2000/svg" xmlns:xlink="http://www.w3.org/1999/xlink">
 <defs>
  <symbol id="y" overflow="visible">
   <path d="m0.48438-0.03125c-0.023437 0.011719-0.046875 0.023438-0.078125 0.03125s-0.0625 0.015625-0.09375 0.015625c-0.085938 0-0.15234-0.023438-0.20312-0.078125-0.054688-0.050781-0.078125-0.11719-0.078125-0.20312 0-0.082031 0.023438-0.14844 0.078125-0.20312 0.050781-0.050781 0.11719-0.078125 0.20312-0.078125 0.03125 0 0.0625 0.007813 0.09375 0.015625 0.03125 0.011719 0.054688 0.023438 0.078125 0.03125v0.10938c-0.023437-0.019531-0.046875-0.03125-0.078125-0.03125-0.023438-0.007813-0.046875-0.015625-0.078125-0.015625-0.042969 0-0.078125 0.015625-0.10938 0.046875-0.023438 0.03125-0.03125 0.074219-0.03125 0.125 0 0.054687 0.007812 0.09375 0.03125 0.125 0.03125 0.03125 0.066406 0.046875 0.10938 0.046875h0.078125c0.03125-0.007812 0.054688-0.023438 0.078125-0.046875z"/>
  </symbol>
  <symbol id="a" overflow="visible">
   <path d="m0.34375-0.28125c0-0.007812-0.007812-0.015625-0.015625-0.015625-0.011719-0.007813-0.023437-0.015625-0.03125-0.015625-0.042969 0-0.074219 0.015625-0.09375 0.046875-0.011719 0.023437-0.015625 0.046875-0.015625 0.078125v0.1875h-0.125v-0.39062h0.125v0.0625c0.019531-0.03125 0.035156-0.050781 0.046875-0.0625 0.019531-0.007813 0.046875-0.015625 0.078125-0.015625h0.015625 0.015625z"/>
  </symbol>
  <symbol id="c" overflow="visible">
   <path d="m0.45312-0.20312v0.046875h-0.29688c0.007812 0.03125 0.019531 0.054688 0.03125 0.0625 0.019531 0.011719 0.046875 0.015625 0.078125 0.015625s0.054687-0.0039062 0.078125-0.015625c0.03125-0.007812 0.0625-0.019531 0.09375-0.03125v0.10938c-0.03125 0-0.0625 0.0078125-0.09375 0.015625-0.023438 0.0078125-0.046875 0.015625-0.078125 0.015625-0.085937 0-0.14844-0.019531-0.1875-0.0625-0.03125-0.039062-0.046875-0.085937-0.046875-0.14062 0-0.070312 0.015625-0.125 0.046875-0.15625 0.039063-0.039062 0.097656-0.0625 0.17188-0.0625 0.0625 0 0.10938 0.023438 0.14062 0.0625 0.039063 0.03125 0.0625 0.078125 0.0625 0.14062zm-0.125-0.03125c0-0.03125-0.011719-0.050781-0.03125-0.0625-0.011719-0.007813-0.027344-0.015625-0.046875-0.015625-0.023438 0-0.042969 0.007812-0.0625 0.015625-0.011719 0.011719-0.023438 0.03125-0.03125 0.0625z"/>
  </symbol>
  <symbol id="e" overflow="visible">
   <path d="m0.23438-0.1875c-0.023437 0-0.042969 0.011719-0.0625 0.03125-0.011719 0.011719-0.015625 0.023438-0.015625 0.03125 0 0.011719 0.003906 0.023438 0.015625 0.03125 0.007813 0.011719 0.023437 0.015625 0.046875 0.015625 0.03125 0 0.050781-0.0039062 0.0625-0.015625 0.019531-0.019531 0.03125-0.039062 0.03125-0.0625v-0.03125zm0.1875-0.03125v0.21875h-0.10938v-0.0625c-0.023438 0.03125-0.042969 0.054688-0.0625 0.0625-0.023438 0.0078125-0.046875 0.015625-0.078125 0.015625-0.042969 0-0.078125-0.011719-0.10938-0.03125-0.023438-0.03125-0.03125-0.066406-0.03125-0.10938 0-0.039062 0.015625-0.070312 0.046875-0.09375 0.03125-0.019531 0.078125-0.03125 0.14062-0.03125h0.09375v-0.015625c0-0.019531-0.011719-0.03125-0.03125-0.03125-0.011719-0.007813-0.039062-0.015625-0.078125-0.015625h-0.078125c-0.023438 0-0.042969 0.007812-0.0625 0.015625v-0.09375h0.078125c0.03125-0.007813 0.054687-0.015625 0.078125-0.015625 0.082031 0 0.13281 0.015625 0.15625 0.046875 0.03125 0.03125 0.046875 0.078125 0.046875 0.14062z"/>
  </symbol>
  <symbol id="b" overflow="visible">
   <path d="m0.20312-0.51562v0.125h0.125v0.078125h-0.125v0.17188 0.046875h0.046875 0.0625v0.09375h-0.09375c-0.054688 0-0.09375-0.0078125-0.125-0.03125-0.023438-0.019531-0.03125-0.054688-0.03125-0.10938v-0.17188h-0.046875v-0.078125h0.046875v-0.125z"/>
  </symbol>
  <symbol id="j" overflow="visible">
   <path d="m0.32812-0.34375v-0.20312h0.125v0.54688h-0.125v-0.0625c-0.011719 0.03125-0.03125 0.054688-0.0625 0.0625-0.023437 0.0078125-0.042969 0.015625-0.0625 0.015625-0.054687 0-0.09375-0.019531-0.125-0.0625-0.03125-0.039062-0.046875-0.085937-0.046875-0.14062 0-0.070312 0.015625-0.125 0.046875-0.15625 0.03125-0.039062 0.070313-0.0625 0.125-0.0625 0.019531 0 0.039063 0.007812 0.0625 0.015625 0.03125 0.011719 0.050781 0.027344 0.0625 0.046875zm-0.078125 0.26562c0.019531 0 0.035156-0.0078125 0.046875-0.03125 0.019531-0.019531 0.03125-0.046875 0.03125-0.078125 0-0.039062-0.011719-0.070312-0.03125-0.09375-0.011719-0.019531-0.027344-0.03125-0.046875-0.03125-0.03125 0-0.058594 0.011719-0.078125 0.03125-0.011719 0.023438-0.015625 0.054688-0.015625 0.09375 0 0.03125 0.003906 0.058594 0.015625 0.078125 0.019531 0.023438 0.046875 0.03125 0.078125 0.03125z"/>
  </symbol>
  <symbol id="i" overflow="visible">
   <path d="m0.26562-0.078125c0.03125 0 0.050781-0.0078125 0.0625-0.03125 0.007813-0.019531 0.015625-0.046875 0.015625-0.078125 0-0.039062-0.007812-0.070312-0.015625-0.09375-0.011719-0.019531-0.03125-0.03125-0.0625-0.03125s-0.054687 0.011719-0.0625 0.03125c-0.011719 0.023438-0.015625 0.054688-0.015625 0.09375 0 0.03125 0.003906 0.058594 0.015625 0.078125 0.007813 0.023438 0.03125 0.03125 0.0625 0.03125zm-0.078125-0.26562c0.019531-0.019531 0.039062-0.035156 0.0625-0.046875 0.019531-0.007813 0.039062-0.015625 0.0625-0.015625 0.050781 0 0.09375 0.023438 0.125 0.0625 0.03125 0.03125 0.046875 0.085938 0.046875 0.15625 0 0.054688-0.015625 0.10156-0.046875 0.14062-0.03125 0.042969-0.074219 0.0625-0.125 0.0625-0.023438 0-0.042969-0.0078125-0.0625-0.015625-0.023438-0.0078125-0.042969-0.03125-0.0625-0.0625v0.0625h-0.125v-0.54688h0.125z"/>
  </symbol>
  <symbol id="h" overflow="visible">
   <path d="m0.015625-0.39062h0.125l0.09375 0.26562 0.09375-0.26562h0.14062l-0.17188 0.42188c-0.023437 0.050781-0.042969 0.082031-0.0625 0.09375-0.023437 0.019531-0.054687 0.03125-0.09375 0.03125h-0.078125v-0.09375h0.046875 0.046875c0.007812 0 0.019531-0.015625 0.03125-0.046875z"/>
  </symbol>
  <symbol id="g" overflow="visible">
   <path d="m0.54688-0.03125c-0.042969 0.011719-0.078125 0.023438-0.10938 0.03125s-0.074219 0.015625-0.125 0.015625c-0.085938 0-0.15234-0.023438-0.20312-0.078125-0.054688-0.050781-0.078125-0.11719-0.078125-0.20312 0-0.082031 0.023438-0.14844 0.078125-0.20312 0.050781-0.050781 0.125-0.078125 0.21875-0.078125 0.039063 0 0.070313 0.007813 0.09375 0.015625 0.03125 0.011719 0.0625 0.023438 0.09375 0.03125v0.10938c-0.03125-0.019531-0.0625-0.03125-0.09375-0.03125-0.023437-0.007813-0.046875-0.015625-0.078125-0.015625-0.054688 0-0.09375 0.015625-0.125 0.046875-0.023438 0.03125-0.03125 0.074219-0.03125 0.125 0 0.054687 0.007812 0.09375 0.03125 0.125 0.03125 0.03125 0.070312 0.046875 0.125 0.046875h0.03125c0.007812 0 0.019531-0.0039062 0.03125-0.015625v-0.09375h-0.078125v-0.09375h0.21875z"/>
  </symbol>
  <symbol id="x" overflow="visible">
   <path d="m0.1875-0.0625v0.20312h-0.125v-0.53125h0.125v0.046875c0.019531-0.019531 0.039062-0.035156 0.0625-0.046875 0.019531-0.007813 0.039062-0.015625 0.0625-0.015625 0.050781 0 0.09375 0.023438 0.125 0.0625 0.03125 0.03125 0.046875 0.085938 0.046875 0.15625 0 0.054688-0.015625 0.10156-0.046875 0.14062-0.03125 0.042969-0.074219 0.0625-0.125 0.0625-0.023438 0-0.042969-0.0078125-0.0625-0.015625-0.023438-0.0078125-0.042969-0.03125-0.0625-0.0625zm0.078125-0.25c-0.03125 0-0.054687 0.011719-0.0625 0.03125-0.011719 0.023438-0.015625 0.054688-0.015625 0.09375 0 0.03125 0.003906 0.058594 0.015625 0.078125 0.007813 0.023438 0.03125 0.03125 0.0625 0.03125s0.050781-0.0078125 0.0625-0.03125c0.007813-0.019531 0.015625-0.046875 0.015625-0.078125 0-0.039062-0.007812-0.070312-0.015625-0.09375-0.011719-0.019531-0.03125-0.03125-0.0625-0.03125z"/>
  </symbol>
  <symbol id="f" overflow="visible">
   <path d="m0.46875-0.23438v0.23438h-0.14062v-0.1875-0.0625c0-0.007812-0.007813-0.019531-0.015625-0.03125 0-0.007812-0.007812-0.015625-0.015625-0.015625 0-0.007813-0.011719-0.015625-0.03125-0.015625-0.023437 0-0.042969 0.011719-0.0625 0.03125-0.011719 0.023438-0.015625 0.054688-0.015625 0.09375v0.1875h-0.125v-0.54688h0.125v0.20312c0.019531-0.019531 0.039062-0.035156 0.0625-0.046875 0.019531-0.007813 0.039062-0.015625 0.0625-0.015625 0.050781 0 0.085938 0.015625 0.10938 0.046875 0.03125 0.03125 0.046875 0.074219 0.046875 0.125z"/>
  </symbol>
  <symbol id="w" overflow="visible">
   <path d="m0.0625-0.39062h0.125v0.39062h-0.125zm0-0.15625h0.125v0.09375h-0.125z"/>
  </symbol>
  <symbol id="v" overflow="visible">
   <path d="m0.15625-0.20312-0.14062-0.1875h0.125l0.09375 0.10938 0.078125-0.10938h0.14062l-0.14062 0.1875 0.14062 0.20312h-0.14062l-0.078125-0.125-0.09375 0.125h-0.125z"/>
  </symbol>
  <symbol id="u" overflow="visible">
   <path d="m0.375-0.39062v0.10938c-0.03125-0.019531-0.0625-0.03125-0.09375-0.03125h-0.0625-0.0625c-0.011719 0-0.015625 0.011719-0.015625 0.03125 0 0.011719 0.003906 0.023438 0.015625 0.03125h0.0625 0.015625c0.0625 0.011719 0.10156 0.027344 0.125 0.046875 0.019531 0.011719 0.03125 0.042969 0.03125 0.09375 0 0.03125-0.015625 0.0625-0.046875 0.09375-0.023438 0.019531-0.0625 0.03125-0.125 0.03125-0.03125 0-0.0625-0.0078125-0.09375-0.015625-0.023438 0-0.046875-0.0039062-0.078125-0.015625v-0.09375c0.019531 0.011719 0.039062 0.023438 0.0625 0.03125h0.09375 0.046875c0.007812-0.0078125 0.015625-0.019531 0.015625-0.03125 0-0.019531-0.007813-0.03125-0.015625-0.03125 0 0-0.011719-0.003906-0.03125-0.015625h-0.03125c-0.054688-0.007812-0.09375-0.019531-0.125-0.03125-0.023438-0.019531-0.03125-0.050781-0.03125-0.09375 0-0.039062 0.015625-0.070312 0.046875-0.09375 0.03125-0.019531 0.078125-0.03125 0.14062-0.03125 0.019531 0 0.039062 0.007812 0.0625 0.015625h0.09375z"/>
  </symbol>
  <symbol id="t" overflow="visible">
   <path d="m0.35938 0.10938v0.0625h-0.35938v-0.0625z"/>
  </symbol>
  <symbol id="s" overflow="visible">
   <path d="m0.39062-0.10938h-0.21875l-0.03125 0.10938h-0.14062l0.20312-0.53125h0.15625l0.1875 0.53125h-0.125zm-0.1875-0.078125h0.14062l-0.0625-0.21875z"/>
  </symbol>
  <symbol id="r" overflow="visible">
   <path d="m0.3125-0.54688v0.078125h-0.0625c-0.023438 0-0.039062 0.007812-0.046875 0.015625v0.03125 0.03125h0.10938v0.078125h-0.10938v0.3125h-0.125v-0.3125h-0.0625v-0.078125h0.0625v-0.03125c0-0.039063 0.0078125-0.070313 0.03125-0.09375 0.019531-0.019531 0.054687-0.03125 0.10938-0.03125z"/>
  </symbol>
  <symbol id="d" overflow="visible">
   <path d="m0.25-0.3125c-0.03125 0-0.058594 0.011719-0.078125 0.03125-0.011719 0.011719-0.015625 0.042969-0.015625 0.09375 0 0.03125 0.003906 0.058594 0.015625 0.078125 0.019531 0.023438 0.046875 0.03125 0.078125 0.03125s0.050781-0.0078125 0.0625-0.03125c0.019531-0.019531 0.03125-0.046875 0.03125-0.078125 0-0.050781-0.011719-0.082031-0.03125-0.09375-0.011719-0.019531-0.03125-0.03125-0.0625-0.03125zm0-0.09375c0.0625 0 0.11328 0.023438 0.15625 0.0625 0.039062 0.03125 0.0625 0.085938 0.0625 0.15625 0 0.054688-0.023438 0.10156-0.0625 0.14062-0.042969 0.042969-0.09375 0.0625-0.15625 0.0625-0.074219 0-0.13281-0.019531-0.17188-0.0625-0.03125-0.039062-0.046875-0.085937-0.046875-0.14062 0-0.070312 0.015625-0.125 0.046875-0.15625 0.039063-0.039062 0.097656-0.0625 0.17188-0.0625z"/>
  </symbol>
  <symbol id="q" overflow="visible">
   <path d="m0.42188-0.32812c0.019531-0.019531 0.039063-0.035156 0.0625-0.046875 0.019531-0.019531 0.039063-0.03125 0.0625-0.03125 0.050781 0 0.085937 0.015625 0.10938 0.046875 0.03125 0.03125 0.046875 0.074219 0.046875 0.125v0.23438h-0.14062v-0.20312-0.015625c0-0.03125-0.007812-0.050781-0.015625-0.0625 0-0.019531-0.011719-0.03125-0.03125-0.03125-0.023437 0-0.042969 0.011719-0.0625 0.03125-0.011719 0.023438-0.015625 0.054688-0.015625 0.09375v0.1875h-0.125v-0.20312c0-0.039063-0.007812-0.066406-0.015625-0.078125 0-0.019531-0.011719-0.03125-0.03125-0.03125-0.03125 0-0.054687 0.011719-0.0625 0.03125-0.011719 0.023438-0.015625 0.054688-0.015625 0.09375v0.1875h-0.125v-0.39062h0.125v0.046875l0.046875-0.046875c0.019531-0.007813 0.046875-0.015625 0.078125-0.015625 0.019531 0 0.039062 0.011719 0.0625 0.03125 0.019531 0.011719 0.035156 0.027344 0.046875 0.046875z"/>
  </symbol>
  <symbol id="p" overflow="visible">
   <path d="m0.0625-0.53125h0.15625l0.1875 0.35938v-0.35938h0.14062v0.53125h-0.15625l-0.20312-0.35938v0.35938h-0.125z"/>
  </symbol>
  <symbol id="o" overflow="visible">
   <path d="m0.0625-0.15625v-0.23438h0.125v0.03125 0.09375 0.046875 0.078125 0.03125c0.007812 0 0.015625 0.007813 0.015625 0.015625h0.046875c0.019531 0 0.035156-0.0039062 0.046875-0.015625 0.019531-0.019531 0.03125-0.050781 0.03125-0.09375v-0.1875h0.125v0.39062h-0.125v-0.0625c-0.023437 0.03125-0.042969 0.054688-0.0625 0.0625-0.023437 0.0078125-0.046875 0.015625-0.078125 0.015625-0.042969 0-0.074219-0.015625-0.09375-0.046875-0.023438-0.03125-0.03125-0.070312-0.03125-0.125z"/>
  </symbol>
  <symbol id="n" overflow="visible">
   <path d="m0.46875-0.23438v0.23438h-0.14062v-0.1875-0.0625c0-0.007812-0.007813-0.019531-0.015625-0.03125 0-0.007812-0.007812-0.015625-0.015625-0.015625 0-0.007813-0.011719-0.015625-0.03125-0.015625-0.023437 0-0.042969 0.011719-0.0625 0.03125-0.011719 0.023438-0.015625 0.054688-0.015625 0.09375v0.1875h-0.125v-0.39062h0.125v0.046875c0.019531-0.019531 0.039062-0.035156 0.0625-0.046875 0.019531-0.007813 0.039062-0.015625 0.0625-0.015625 0.050781 0 0.085938 0.015625 0.10938 0.046875 0.03125 0.03125 0.046875 0.074219 0.046875 0.125z"/>
  </symbol>
  <symbol id="m" overflow="visible">
   <path d="m0.0625-0.53125h0.23438c0.0625 0 0.10938 0.015625 0.14062 0.046875 0.039062 0.03125 0.0625 0.078125 0.0625 0.14062 0 0.054688-0.023438 0.09375-0.0625 0.125-0.03125 0.023438-0.078125 0.03125-0.14062 0.03125h-0.09375v0.1875h-0.14062zm0.14062 0.10938v0.14062h0.078125c0.019531 0 0.035156-0.003906 0.046875-0.015625 0.019531-0.007813 0.03125-0.023437 0.03125-0.046875 0-0.03125-0.011719-0.050781-0.03125-0.0625-0.011719-0.007812-0.027344-0.015625-0.046875-0.015625z"/>
  </symbol>
  <symbol id="l" overflow="visible">
   <path d="m0.0625-0.39062h0.125v0.375c0 0.050781-0.015625 0.09375-0.046875 0.125-0.023437 0.03125-0.058594 0.046875-0.10938 0.046875h-0.046875v-0.09375h0.015625c0.019531 0 0.035156-0.0078125 0.046875-0.015625 0.0078125 0 0.015625-0.023438 0.015625-0.0625zm0-0.15625h0.125v0.09375h-0.125z"/>
  </symbol>
  <symbol id="k" overflow="visible">
   <path d="m0.39062-0.39062v0.10938c-0.03125-0.007812-0.054687-0.015625-0.0625-0.015625-0.011719-0.007813-0.03125-0.015625-0.0625-0.015625s-0.058594 0.011719-0.078125 0.03125c-0.023438 0.023438-0.03125 0.054688-0.03125 0.09375 0 0.03125 0.007812 0.058594 0.03125 0.078125 0.019531 0.023438 0.046875 0.03125 0.078125 0.03125s0.050781-0.0039062 0.0625-0.015625c0.019531-0.007812 0.039063-0.015625 0.0625-0.015625v0.09375c-0.03125 0.011719-0.058594 0.015625-0.078125 0.015625-0.011719 0.0078125-0.027344 0.015625-0.046875 0.015625-0.085937 0-0.14844-0.019531-0.1875-0.0625-0.03125-0.039062-0.046875-0.085937-0.046875-0.14062 0-0.070312 0.015625-0.125 0.046875-0.15625 0.039063-0.039062 0.10156-0.0625 0.1875-0.0625 0.019531 0 0.035156 0.007812 0.046875 0.015625h0.078125z"/>
  </symbol>
 </defs>
 <g>
  <path d="m561.16 182.81h-421.73c-4.6602 0-8.4414-3.7812-8.4414-8.4414v-73.973c0-4.6602 3.7812-8.4414 8.4414-8.4414l421.73 0.003906c4.6602 0 8.4414 3.7812 8.4414 8.4414v73.973c0 4.6602-3.7773 8.4375-8.4414 8.4375zm-413.29-16.883h404.85v-57.09h-404.85z" fill-rule="evenodd"/>
  <path d="m497.05 305.25h-293.52c-3.8242 0-7.1719-2.5703-8.1562-6.2656l-32.648-122.44c-1.2031-4.5039 1.4766-9.1328 5.9805-10.332 4.5-1.2031 9.1328 1.4766 10.332 5.9805l30.98 116.18h280.54l30.98-116.18c1.2031-4.5078 5.8242-7.1836 10.332-5.9805 4.5078 1.2031 7.1836 5.8281 5.9805 10.332l-32.648 122.44c-0.98438 3.6914-4.332 6.2656-8.1562 6.2656z" fill-rule="evenodd"/>
  <path d="m252.45 305.25c-4.0156 0-7.5742-2.875-8.3008-6.9648l-21.766-122.44c-0.8125-4.5898 2.2422-8.9727 6.832-9.7852 4.5898-0.81641 8.9688 2.2422 9.7891 6.832l21.766 122.44c0.8125 4.5898-2.2422 8.9727-6.832 9.7852-0.5 0.089843-0.99609 0.13281-1.4883 0.13281z" fill-rule="evenodd"/>
  <path d="m301.37 305.25c-4.3242 0-8.0078-3.3047-8.3984-7.6953l-10.883-122.44c-0.41406-4.6445 3.0195-8.7422 7.6602-9.1562 4.625-0.43359 8.7422 3.0156 9.1562 7.6602l10.883 122.44c0.41406 4.6445-3.0195 8.7422-7.6602 9.1562-0.25781 0.023437-0.51172 0.035156-0.75781 0.035156z" fill-rule="evenodd"/>
  <path d="m350.3 305.25c-4.6602 0-8.4414-3.7812-8.4414-8.4414v-122.44c0-4.6602 3.7812-8.4414 8.4414-8.4414 4.6602 0 8.4414 3.7812 8.4414 8.4414v122.44c-0.003907 4.6602-3.7812 8.4414-8.4414 8.4414z" fill-rule="evenodd"/>
  <path d="m399.23 305.25c-0.25 0-0.50391-0.011719-0.75391-0.03125-4.6445-0.41406-8.0703-4.5117-7.6641-9.1562l10.883-122.44c0.41406-4.6445 4.5039-8.0898 9.1562-7.6602 4.6445 0.41406 8.0703 4.5117 7.6602 9.1562l-10.883 122.44c-0.39062 4.3867-4.0742 7.6914-8.3984 7.6914z" fill-rule="evenodd"/>
  <path d="m448.15 305.25c-0.48828 0-0.98828-0.042969-1.4883-0.13281-4.5898-0.8125-7.6484-5.1953-6.832-9.7852l21.766-122.44c0.8125-4.5898 5.207-7.6484 9.7852-6.832 4.5898 0.8125 7.6523 5.1953 6.832 9.7852l-21.766 122.44c-0.72656 4.0898-4.2852 6.9648-8.2969 6.9648z" fill-rule="evenodd"/>
  <path d="m514.41 108.84c-4.6602 0-8.4414-3.7812-8.4414-8.4414v-28.484c0-11.055-8.9922-20.043-20.043-20.043h-271.26c-11.055 0-20.043 8.9922-20.043 20.043v28.484c0 4.6602-3.7812 8.4414-8.4414 8.4414s-8.4414-3.7812-8.4414-8.4414l0.003906-28.484c0-20.359 16.562-36.926 36.926-36.926h271.26c20.359 0 36.926 16.566 36.926 36.926v28.484c-0.003907 4.6602-3.7852 8.4414-8.4453 8.4414z" fill-rule="evenodd"/>
  <path d="m409.46 353.89h-118.34c-11.008 0-20.863-4.7227-27.77-13.293l-30.891-38.359c-2.9219-3.6328-2.3516-8.9453 1.2773-11.867 3.6328-2.9258 8.9453-2.3516 11.867 1.2773l30.891 38.359c3.7383 4.6445 8.6562 6.9961 14.617 6.9961l118.34 0.003907c5.9609 0 10.879-2.3555 14.621-6.9961l31.125-38.652c2.9219-3.6328 8.2344-4.2031 11.867-1.2773 3.6328 2.9219 4.2031 8.2344 1.2773 11.867l-31.125 38.652c-6.8945 8.5703-16.758 13.289-27.762 13.289z" fill-rule="evenodd"/>
  <path d="m264.28 523.25c-4.1641 0-7.7891-3.0859-8.3594-7.3242-0.61719-4.6211 2.6328-8.8672 7.25-9.4805 3.7461-0.5 14.988-10.445 19.496-24.961 3.9492-12.73 1.1523-23.52-8.3281-32.086-18.934-17.105-18.535-36.246-14.863-49.297 3.7734-13.414 11.797-22.922 12.137-23.324 3.0273-3.5469 8.3516-3.9688 11.898-0.94531 3.5391 3.0195 3.9648 8.3281 0.96094 11.879-0.11719 0.14453-6.2148 7.5078-8.875 17.418-3.2969 12.27-0.003906 22.652 10.055 31.738 14.371 12.984 19.039 30.605 13.133 49.617-5.6562 18.227-20.953 35.031-33.387 36.688-0.36719 0.050781-0.74609 0.078125-1.1172 0.078125z" fill-rule="evenodd"/>
  <path d="m408.01 523.25c-4.1641 0-7.7891-3.0859-8.3594-7.3242-0.61719-4.6211 2.6328-8.8672 7.25-9.4805 3.7422-0.5 14.992-10.445 19.496-24.961 3.9492-12.73 1.1523-23.52-8.3281-32.086-18.934-17.105-18.535-36.246-14.867-49.297 3.7734-13.414 11.797-22.922 12.137-23.324 3.0273-3.5469 8.3516-3.9688 11.898-0.94531 3.5391 3.0195 3.9648 8.3281 0.96094 11.879-0.11719 0.14453-6.2148 7.5078-8.875 17.418-3.2969 12.27-0.003906 22.652 10.055 31.738 14.375 12.984 19.043 30.605 13.137 49.617-5.6562 18.227-20.953 35.031-33.391 36.688-0.36719 0.050781-0.74609 0.078125-1.1133 0.078125z" fill-rule="evenodd"/>
  <path d="m335.99 526.7c-4.1641 0-7.7891-3.0859-8.3594-7.3242-0.61719-4.6211 2.6328-8.8672 7.25-9.4805 3.7422-0.5 14.988-10.445 19.496-24.961 3.9492-12.73 1.1523-23.52-8.3281-32.086-18.934-17.105-18.535-36.246-14.863-49.297 3.7734-13.414 11.797-22.922 12.137-23.32 3.0273-3.5469 8.3516-3.9688 11.898-0.94531 3.5391 3.0156 3.9648 8.3281 0.96094 11.879-0.11719 0.14453-6.2148 7.5078-8.875 17.418-3.2969 12.27-0.003907 22.652 10.055 31.734 14.375 12.984 19.039 30.605 13.133 49.617-5.6562 18.227-20.953 35.031-33.387 36.688-0.36719 0.054687-0.74609 0.078124-1.1172 0.078124z" fill-rule="evenodd"/>
  <use x="70" y="562.167969" xlink:href="#y"/>
  <use x="70.53125" y="562.167969" xlink:href="#a"/>
  <use x="70.886719" y="562.167969" xlink:href="#c"/>
  <use x="71.378906" y="562.167969" xlink:href="#e"/>
  <use x="71.867188" y="562.167969" xlink:href="#b"/>
  <use x="72.210938" y="562.167969" xlink:href="#c"/>
  <use x="72.703125" y="562.167969" xlink:href="#j"/>
  <use x="73.46875" y="562.167969" xlink:href="#i"/>
  <use x="73.988281" y="562.167969" xlink:href="#h"/>
  <use x="74.710938" y="562.167969" xlink:href="#g"/>
  <use x="75.304688" y="562.167969" xlink:href="#a"/>
  <use x="75.660156" y="562.167969" xlink:href="#e"/>
  <use x="76.148438" y="562.167969" xlink:href="#x"/>
  <use x="76.667969" y="562.167969" xlink:href="#f"/>
  <use x="77.179688" y="562.167969" xlink:href="#w"/>
  <use x="77.429688" y="562.167969" xlink:href="#v"/>
  <use x="77.894531" y="562.167969" xlink:href="#u"/>
  <use x="78.324219" y="562.167969" xlink:href="#t"/>
  <use x="78.6875" y="562.167969" xlink:href="#s"/>
  <use x="79.246094" y="562.167969" xlink:href="#a"/>
  <use x="79.601562" y="562.167969" xlink:href="#b"/>
  <use x="70" y="562.890625" xlink:href="#r"/>
  <use x="70.316406" y="562.890625" xlink:href="#a"/>
  <use x="70.671875" y="562.890625" xlink:href="#d"/>
  <use x="71.167969" y="562.890625" xlink:href="#q"/>
  <use x="72.171875" y="562.890625" xlink:href="#b"/>
  <use x="72.519531" y="562.890625" xlink:href="#f"/>
  <use x="73.03125" y="562.890625" xlink:href="#c"/>
  <use x="73.773438" y="562.890625" xlink:href="#p"/>
  <use x="74.378906" y="562.890625" xlink:href="#d"/>
  <use x="74.875" y="562.890625" xlink:href="#o"/>
  <use x="75.390625" y="562.890625" xlink:href="#n"/>
  <use x="76.15625" y="562.890625" xlink:href="#m"/>
  <use x="76.6875" y="562.890625" xlink:href="#a"/>
  <use x="77.042969" y="562.890625" xlink:href="#d"/>
  <use x="77.539063" y="562.890625" xlink:href="#l"/>
  <use x="77.789063" y="562.890625" xlink:href="#c"/>
  <use x="78.277344" y="562.890625" xlink:href="#k"/>
  <use x="78.707031" y="562.890625" xlink:href="#b"/>
 </g>
</svg>
