<?xml version="1.0" encoding="UTF-8"?>
<svg width="700pt" height="700pt" version="1.1" viewBox="0 0 700 700" xmlns="http://www.w3.org/2000/svg" xmlns:xlink="http://www.w3.org/1999/xlink">
 <defs>
  <symbol id="u" overflow="visible">
   <path d="m0.28125-0.015625c-0.011719 0.011719-0.027344 0.015625-0.046875 0.015625h-0.046875c-0.054688 0-0.09375-0.0078125-0.125-0.03125-0.03125-0.03125-0.046875-0.070312-0.046875-0.125 0-0.039062 0.015625-0.078125 0.046875-0.10938s0.070312-0.046875 0.125-0.046875c0.007812 0 0.023438 0.007812 0.046875 0.015625 0.019531 0 0.035156 0.007813 0.046875 0.015625v0.0625c-0.011719-0.019531-0.027344-0.03125-0.046875-0.03125h-0.046875c-0.023438 0-0.042969 0.011719-0.0625 0.03125-0.011719 0.011719-0.015625 0.03125-0.015625 0.0625s0.003906 0.058594 0.015625 0.078125c0.019531 0.023438 0.039062 0.03125 0.0625 0.03125h0.046875c0.019531-0.0078125 0.035156-0.019531 0.046875-0.03125z"/>
  </symbol>
  <symbol id="d" overflow="visible">
   <path d="m0.20312-0.15625c0-0.007812-0.007813-0.015625-0.015625-0.015625h-0.015625c-0.023437 0-0.039063 0.007813-0.046875 0.015625-0.011719 0.011719-0.015625 0.027344-0.015625 0.046875v0.10938h-0.078125v-0.23438h0.078125v0.046875c0.007813-0.019531 0.019531-0.03125 0.03125-0.03125 0.007813-0.007812 0.023437-0.015625 0.046875-0.015625h0.015625z"/>
  </symbol>
  <symbol id="c" overflow="visible">
   <path d="m0.26562-0.125v0.03125h-0.17188c0 0.023438 0.0039062 0.039062 0.015625 0.046875h0.046875 0.046875c0.019531-0.0078125 0.035156-0.019531 0.046875-0.03125v0.0625c-0.011719 0.011719-0.027344 0.015625-0.046875 0.015625h-0.046875c-0.054688 0-0.089844-0.0078125-0.10938-0.03125-0.023438-0.019531-0.03125-0.046875-0.03125-0.078125 0-0.039063 0.0078125-0.070313 0.03125-0.09375 0.019531-0.019531 0.050781-0.03125 0.09375-0.03125 0.039063 0 0.070313 0.011719 0.09375 0.03125 0.019531 0.023437 0.03125 0.046875 0.03125 0.078125zm-0.078125-0.015625c0-0.007813-0.007812-0.019531-0.015625-0.03125-0.011719-0.007813-0.023437-0.015625-0.03125-0.015625-0.011719 0-0.023437 0.007812-0.03125 0.015625-0.011719 0.011719-0.015625 0.023437-0.015625 0.03125z"/>
  </symbol>
  <symbol id="a" overflow="visible">
   <path d="m0.14062-0.10938c-0.011719 0-0.023437 0.007813-0.03125 0.015625l-0.015625 0.015625v0.03125h0.03125c0.019531 0 0.03125-0.0039062 0.03125-0.015625 0.007812-0.0078125 0.015625-0.019531 0.015625-0.03125v-0.015625zm0.10938-0.015625v0.125h-0.078125v-0.03125c-0.011719 0.011719-0.023437 0.023438-0.03125 0.03125h-0.046875c-0.023438 0-0.042969-0.0039062-0.0625-0.015625-0.011719-0.0078125-0.015625-0.03125-0.015625-0.0625 0-0.019531 0.0078125-0.035156 0.03125-0.046875 0.019531-0.007812 0.046875-0.015625 0.078125-0.015625h0.046875v-0.015625c0-0.007812-0.007813-0.015625-0.015625-0.015625 0-0.007813-0.011719-0.015625-0.03125-0.015625-0.023438 0-0.042969 0.007812-0.0625 0.015625h-0.015625v-0.046875c0.0078125-0.007812 0.019531-0.015625 0.03125-0.015625h0.046875c0.050781 0 0.082031 0.011719 0.09375 0.03125 0.019531 0.011719 0.03125 0.039063 0.03125 0.078125z"/>
  </symbol>
  <symbol id="b" overflow="visible">
   <path d="m0.125-0.29688v0.0625h0.0625v0.0625h-0.0625v0.09375 0.03125h0.015625 0.046875v0.046875h-0.0625c-0.03125 0-0.054688-0.0039062-0.0625-0.015625-0.011719-0.019531-0.015625-0.039062-0.015625-0.0625v-0.09375h-0.046875v-0.0625h0.046875v-0.0625z"/>
  </symbol>
  <symbol id="l" overflow="visible">
   <path d="m0.1875-0.20312v-0.125h0.078125v0.32812h-0.078125v-0.03125c-0.011719 0.011719-0.023438 0.023438-0.03125 0.03125h-0.03125c-0.03125 0-0.058594-0.0078125-0.078125-0.03125-0.023438-0.019531-0.03125-0.046875-0.03125-0.078125 0-0.039063 0.0078125-0.070313 0.03125-0.09375 0.019531-0.019531 0.046875-0.03125 0.078125-0.03125 0.007812 0 0.019531 0.007813 0.03125 0.015625 0.007812 0 0.019531 0.007812 0.03125 0.015625zm-0.046875 0.15625c0.007813 0 0.019531-0.0039062 0.03125-0.015625 0.007813-0.0078125 0.015625-0.023438 0.015625-0.046875 0-0.019531-0.007812-0.035156-0.015625-0.046875-0.011719-0.019531-0.023437-0.03125-0.03125-0.03125-0.011719 0-0.023437 0.011719-0.03125 0.03125-0.011719 0.011719-0.015625 0.027344-0.015625 0.046875 0 0.023438 0.0039062 0.039062 0.015625 0.046875 0.007813 0.011719 0.019531 0.015625 0.03125 0.015625z"/>
  </symbol>
  <symbol id="k" overflow="visible">
   <path d="m0.15625-0.046875c0.019531 0 0.03125-0.0039062 0.03125-0.015625 0.007812-0.0078125 0.015625-0.023438 0.015625-0.046875 0-0.019531-0.007813-0.035156-0.015625-0.046875 0-0.019531-0.011719-0.03125-0.03125-0.03125-0.023438 0-0.039062 0.011719-0.046875 0.03125v0.046875 0.046875c0.007813 0.011719 0.023437 0.015625 0.046875 0.015625zm-0.046875-0.15625c0.007813-0.007813 0.019531-0.015625 0.03125-0.015625 0.007813-0.007812 0.023437-0.015625 0.046875-0.015625 0.03125 0 0.050781 0.011719 0.0625 0.03125 0.019531 0.023437 0.03125 0.054687 0.03125 0.09375 0 0.03125-0.011719 0.058594-0.03125 0.078125-0.011719 0.023438-0.03125 0.03125-0.0625 0.03125h-0.046875c-0.011719-0.0078125-0.023437-0.019531-0.03125-0.03125v0.03125h-0.078125v-0.32812h0.078125z"/>
  </symbol>
  <symbol id="j" overflow="visible">
   <path d="m0-0.23438h0.078125l0.0625 0.15625 0.046875-0.15625h0.078125l-0.09375 0.25c-0.011719 0.03125-0.023437 0.050781-0.03125 0.0625-0.011719 0.0078125-0.03125 0.015625-0.0625 0.015625h-0.03125v-0.046875h0.015625c0.0078125 0 0.015625-0.0078125 0.015625-0.015625 0.0078125 0 0.019531-0.0078125 0.03125-0.015625v-0.015625z"/>
  </symbol>
  <symbol id="g" overflow="visible">
   <path d="m0.03125-0.23438h0.078125v0.23438c0 0.03125-0.011719 0.050781-0.03125 0.0625-0.011719 0.019531-0.03125 0.03125-0.0625 0.03125h-0.03125v-0.046875h0.015625c0.0078125 0 0.015625-0.0078125 0.015625-0.015625 0.0078125 0 0.015625-0.011719 0.015625-0.03125zm0-0.09375h0.078125v0.0625h-0.078125z"/>
  </symbol>
  <symbol id="i" overflow="visible">
   <path d="m0.26562-0.14062v0.14062h-0.078125v-0.10938-0.03125-0.015625c0-0.007812-0.007812-0.015625-0.015625-0.015625h-0.015625c-0.011719 0-0.023438 0.007813-0.03125 0.015625-0.011719 0.011719-0.015625 0.027344-0.015625 0.046875v0.10938h-0.078125v-0.32812h0.078125v0.125c0.007813-0.007813 0.019531-0.015625 0.03125-0.015625 0.007813-0.007812 0.023437-0.015625 0.046875-0.015625 0.019531 0 0.035156 0.011719 0.046875 0.03125 0.019531 0.011719 0.03125 0.03125 0.03125 0.0625z"/>
  </symbol>
  <symbol id="t" overflow="visible">
   <path d="m0.03125-0.23438h0.078125v0.23438h-0.078125zm0-0.09375h0.078125v0.0625h-0.078125z"/>
  </symbol>
  <symbol id="h" overflow="visible">
   <path d="m0.26562-0.14062v0.14062h-0.078125v-0.10938-0.03125-0.015625c0-0.007812-0.007812-0.015625-0.015625-0.015625h-0.015625c-0.011719 0-0.023438 0.007813-0.03125 0.015625-0.011719 0.011719-0.015625 0.027344-0.015625 0.046875v0.10938h-0.078125v-0.23438h0.078125v0.03125c0.007813-0.007813 0.019531-0.015625 0.03125-0.015625 0.007813-0.007812 0.023437-0.015625 0.046875-0.015625 0.019531 0 0.035156 0.011719 0.046875 0.03125 0.019531 0.011719 0.03125 0.03125 0.03125 0.0625z"/>
  </symbol>
  <symbol id="f" overflow="visible">
   <path d="m0.10938-0.03125v0.10938h-0.078125v-0.3125h0.078125v0.03125c0.007813-0.007813 0.019531-0.015625 0.03125-0.015625 0.007813-0.007812 0.023437-0.015625 0.046875-0.015625 0.03125 0 0.050781 0.011719 0.0625 0.03125 0.019531 0.023437 0.03125 0.054687 0.03125 0.09375 0 0.03125-0.011719 0.058594-0.03125 0.078125-0.011719 0.023438-0.03125 0.03125-0.0625 0.03125h-0.046875c-0.011719-0.0078125-0.023437-0.019531-0.03125-0.03125zm0.046875-0.15625c-0.023438 0-0.039062 0.011719-0.046875 0.03125v0.046875 0.046875c0.007813 0.011719 0.023437 0.015625 0.046875 0.015625 0.019531 0 0.03125-0.0039062 0.03125-0.015625 0.007812-0.0078125 0.015625-0.023438 0.015625-0.046875 0-0.019531-0.007813-0.035156-0.015625-0.046875 0-0.019531-0.011719-0.03125-0.03125-0.03125z"/>
  </symbol>
  <symbol id="s" overflow="visible">
   <path d="m0.03125-0.32812h0.078125v0.32812h-0.078125z"/>
  </symbol>
  <symbol id="r" overflow="visible">
   <path d="m0.1875-0.32812v0.0625h-0.046875-0.015625v0.015625 0.015625h0.0625v0.0625h-0.0625v0.17188h-0.078125v-0.17188h-0.046875v-0.0625h0.046875v-0.015625c0-0.019531 0.0039062-0.035156 0.015625-0.046875 0.0078125-0.019531 0.03125-0.03125 0.0625-0.03125z"/>
  </symbol>
  <symbol id="e" overflow="visible">
   <path d="m0.14062-0.1875c-0.011719 0-0.023437 0.007812-0.03125 0.015625-0.011719 0.011719-0.015625 0.03125-0.015625 0.0625 0 0.023438 0.0039062 0.039062 0.015625 0.046875 0.007813 0.011719 0.019531 0.015625 0.03125 0.015625 0.019531 0 0.035156-0.0039062 0.046875-0.015625 0.007812-0.0078125 0.015625-0.023438 0.015625-0.046875 0-0.03125-0.007813-0.050781-0.015625-0.0625-0.011719-0.007813-0.027344-0.015625-0.046875-0.015625zm0-0.046875c0.039063 0 0.070313 0.011719 0.09375 0.03125 0.019531 0.023437 0.03125 0.054687 0.03125 0.09375 0 0.03125-0.011719 0.058594-0.03125 0.078125-0.023437 0.023438-0.054687 0.03125-0.09375 0.03125-0.042969 0-0.074219-0.0078125-0.09375-0.03125-0.023438-0.019531-0.03125-0.046875-0.03125-0.078125 0-0.039063 0.0078125-0.070313 0.03125-0.09375 0.019531-0.019531 0.050781-0.03125 0.09375-0.03125z"/>
  </symbol>
  <symbol id="q" overflow="visible">
   <path d="m0.25-0.1875 0.03125-0.03125c0.007812-0.007812 0.023438-0.015625 0.046875-0.015625 0.019531 0 0.035156 0.011719 0.046875 0.03125 0.019531 0.011719 0.03125 0.03125 0.03125 0.0625v0.14062h-0.078125v-0.125c0-0.019531-0.007813-0.03125-0.015625-0.03125 0-0.007812-0.007812-0.015625-0.015625-0.015625-0.011719 0-0.023437 0.007813-0.03125 0.015625-0.011719 0.011719-0.015625 0.027344-0.015625 0.046875v0.10938h-0.0625v-0.125c0-0.019531-0.007812-0.03125-0.015625-0.03125 0-0.007812-0.007813-0.015625-0.015625-0.015625-0.023438 0-0.039062 0.007813-0.046875 0.015625v0.046875 0.10938h-0.078125v-0.23438h0.078125v0.03125c0.007813-0.007813 0.019531-0.015625 0.03125-0.015625 0.007813-0.007812 0.019531-0.015625 0.03125-0.015625 0.019531 0 0.035156 0.007813 0.046875 0.015625 0.007812 0.011719 0.019531 0.023438 0.03125 0.03125z"/>
  </symbol>
  <symbol id="p" overflow="visible">
   <path d="m0.046875-0.3125h0.078125l0.10938 0.21875v-0.21875h0.078125v0.3125h-0.09375l-0.10938-0.20312v0.20312h-0.0625z"/>
  </symbol>
  <symbol id="o" overflow="visible">
   <path d="m0.03125-0.09375v-0.14062h0.078125v0.03125 0.046875 0.03125 0.046875 0.015625c0.007813 0 0.015625 0.0078125 0.015625 0.015625h0.015625c0.007813 0 0.019531-0.0039062 0.03125-0.015625 0.007813-0.0078125 0.015625-0.03125 0.015625-0.0625v-0.10938h0.078125v0.23438h-0.078125v-0.03125c-0.011719 0.011719-0.023438 0.023438-0.03125 0.03125h-0.046875c-0.023438 0-0.042969-0.0039062-0.0625-0.015625-0.011719-0.019531-0.015625-0.046875-0.015625-0.078125z"/>
  </symbol>
  <symbol id="n" overflow="visible">
   <path d="m0.046875-0.3125h0.125c0.039063 0 0.066406 0.011719 0.078125 0.03125 0.019531 0.023438 0.03125 0.046875 0.03125 0.078125s-0.011719 0.058594-0.03125 0.078125c-0.011719 0.011719-0.039062 0.015625-0.078125 0.015625h-0.046875v0.10938h-0.078125zm0.078125 0.0625v0.09375h0.03125c0.019531 0 0.03125-0.003906 0.03125-0.015625 0.007812-0.007813 0.015625-0.019531 0.015625-0.03125 0-0.019531-0.007813-0.03125-0.015625-0.03125 0-0.007813-0.011719-0.015625-0.03125-0.015625z"/>
  </symbol>
  <symbol id="m" overflow="visible">
   <path d="m0.21875-0.21875v0.0625c-0.011719-0.007812-0.023438-0.015625-0.03125-0.015625-0.011719-0.007813-0.023438-0.015625-0.03125-0.015625-0.023438 0-0.039062 0.011719-0.046875 0.03125-0.011719 0.011719-0.015625 0.027344-0.015625 0.046875 0 0.023438 0.0039062 0.039062 0.015625 0.046875 0.007813 0.011719 0.023437 0.015625 0.046875 0.015625h0.03125c0.007812-0.0078125 0.019531-0.015625 0.03125-0.015625v0.0625h-0.03125-0.03125c-0.054688 0-0.089844-0.0078125-0.10938-0.03125-0.023438-0.019531-0.03125-0.046875-0.03125-0.078125 0-0.039063 0.0078125-0.070313 0.03125-0.09375 0.019531-0.019531 0.054687-0.03125 0.10938-0.03125h0.03125c0.007812 0 0.019531 0.007813 0.03125 0.015625z"/>
  </symbol>
 </defs>
 <g>
  <path d="m208.54 95.371 443.27 126.6c-38.031 5.457-100.32 24.18-129.12 48.609-50.793-15.363-85.547-19.645-137.35-1.7617l-255.55-73.625c13.348-54.82 51.043-79.586 78.746-99.82zm-57.508 312.64h-108.8c-4.2812-19.309-15.363-43.824-35.176-43.992l-7.0508-0.082031v148.01l7.0508-0.082031c19.812-0.16797 30.895-24.684 35.176-43.992h108.8c15.027 20.402 42.816 26.359 64.98 14.105 26.949-15.027 34.168-50.371 15.449-74.801l16.621-58.18 229.61 65.566c24.598 6.9688 50.625-0.33594 72.789-17.715 27.117-21.406 46.594-56.5 52.891-94.531l32.656 9.3203c34.168-19.73 52.637-39.289 63.551-77.742 2.7695-10.996-8.7305-14.777-8.7305-15.281l-485.08-138.52c-101 73.879-112.83 124.17-65.23 238.18l49.953 14.273-16.621 58.262c-9.0664 3.3594-17.043 9.3203-22.836 17.211zm-128.11 74.215c-2.6016 5.625-5.707 10.074-8.8984 12.762v-114.09c22.164 18.555 20.148 77.488 8.8984 101.33zm138.1-24.348c-17.965-28.797 8.1445-63.887 40.047-55.074 31.816 8.8164 36.352 51.297 8.1445 66.996-16.621 9.2344-37.695 4.0312-48.188-11.922zm-116.44-35.848h99.148c-3.4414 10.328-3.4414 21.492 0 31.816h-99.148c1.1758-10.41 1.1758-21.406 0-31.816zm159.34-85.633 30.727 8.7305-14.691 51.211c-8.8984-6.1289-19.812-9.2344-30.645-8.7305zm230.11 5.5391c-4.6172-23.844-2.4336-47.266 4.0312-70.438 4.9531-0.50391 9.7383-0.67188 14.523-0.58594-8.5625 23.758-8.8984 49.195-1.5117 69.598 14.523 39.961 54.57 51.465 88.066 25.102 30.141-23.758 45.336-70.941 34.422-108.97 5.1211-2.1836 10.328-4.1133 15.531-5.875 9.8242 48.188-10.074 105.78-47.266 135.08-46.512 36.602-96.293 12.004-107.8-43.906zm5.9609 47.266-289.22-82.527c-12.844-31.148-25.27-65.148-23.086-97.555l260.17 73.543c10.41-3.6953 24.18-7.0508 35.094-9.0664-6.9688 28.125-7.3867 52.137-1.2578 76.984 3.5273 14.355 9.4023 27.621 18.301 38.617zm162.53-142.64c28.039-8.0586 59.27-12.676 82.945-14.105-8.8164 29.469-22.918 47.18-51.297 64.141l-29.133-8.3125c1.0898-13.938 0.33594-28.039-2.5195-41.727zm-135.42 25.355c19.309 2.2656 39.543 8.3125 58.934 14.355 11.164-10.16 19.73-16.285 34.672-23.758 8.1445 32.152-4.9531 72.199-30.223 92.098-25.941 20.402-54.988 12.09-66.324-18.891-7.2188-20.066-5.0391-44.242 2.9375-63.805z"/>
  <use y="513.203125" xlink:href="#u"/>
  <use x="0.308594" y="513.203125" xlink:href="#d"/>
  <use x="0.515625" y="513.203125" xlink:href="#c"/>
  <use x="0.800781" y="513.203125" xlink:href="#a"/>
  <use x="1.082031" y="513.203125" xlink:href="#b"/>
  <use x="1.285156" y="513.203125" xlink:href="#c"/>
  <use x="1.570313" y="513.203125" xlink:href="#l"/>
  <use x="2.015625" y="513.203125" xlink:href="#k"/>
  <use x="2.316406" y="513.203125" xlink:href="#j"/>
  <use x="2.734375" y="513.203125" xlink:href="#b"/>
  <use x="2.9375" y="513.203125" xlink:href="#a"/>
  <use x="3.21875" y="513.203125" xlink:href="#g"/>
  <use x="3.363281" y="513.203125" xlink:href="#i"/>
  <use x="3.660156" y="513.203125" xlink:href="#t"/>
  <use x="3.804688" y="513.203125" xlink:href="#h"/>
  <use x="4.25" y="513.203125" xlink:href="#f"/>
  <use x="4.550781" y="513.203125" xlink:href="#a"/>
  <use x="4.835938" y="513.203125" xlink:href="#s"/>
  <use x="4.976562" y="513.203125" xlink:href="#a"/>
  <use x="5.261719" y="513.203125" xlink:href="#f"/>
  <use x="5.5625" y="513.203125" xlink:href="#f"/>
  <use x="5.863281" y="513.203125" xlink:href="#a"/>
  <use y="513.625" xlink:href="#r"/>
  <use x="0.183594" y="513.625" xlink:href="#d"/>
  <use x="0.390625" y="513.625" xlink:href="#e"/>
  <use x="0.679688" y="513.625" xlink:href="#q"/>
  <use x="1.261719" y="513.625" xlink:href="#b"/>
  <use x="1.460938" y="513.625" xlink:href="#i"/>
  <use x="1.761719" y="513.625" xlink:href="#c"/>
  <use x="2.191406" y="513.625" xlink:href="#p"/>
  <use x="2.542969" y="513.625" xlink:href="#e"/>
  <use x="2.832031" y="513.625" xlink:href="#o"/>
  <use x="3.128906" y="513.625" xlink:href="#h"/>
  <use x="3.574219" y="513.625" xlink:href="#n"/>
  <use x="3.882812" y="513.625" xlink:href="#d"/>
  <use x="4.089844" y="513.625" xlink:href="#e"/>
  <use x="4.378906" y="513.625" xlink:href="#g"/>
  <use x="4.523438" y="513.625" xlink:href="#c"/>
  <use x="4.808594" y="513.625" xlink:href="#m"/>
  <use x="5.054688" y="513.625" xlink:href="#b"/>
 </g>
</svg>
