<svg width="131" height="41" viewBox="0 0 131 41" fill="none" xmlns="http://www.w3.org/2000/svg">
<path fill-rule="evenodd" clip-rule="evenodd" d="M48.31 3.42175H35.0117V6.85336H35.4933C35.5894 4.30449 36.6494 4.10808 38.7694 4.10808C39.637 4.10808 40.6009 4.10808 40.6009 4.7944V15.187C40.6009 16.8539 40.3116 17.4424 38.1917 17.5402V18.0302C39.3478 18.0302 40.504 17.9323 41.6608 17.9323C42.8177 17.9323 44.07 18.0302 45.2262 18.0302V17.5402C43.1062 17.4424 42.817 16.8539 42.817 15.187V4.7944C42.817 4.01025 44.0693 4.10808 44.937 4.10808C46.96 4.10808 47.7315 4.69657 47.9238 6.85336H48.5023L48.31 3.42175Z" fill="#0C0E0F"/>
<path fill-rule="evenodd" clip-rule="evenodd" d="M51.6826 2.93176L48.3096 3.61809V4.10799C48.7911 4.20582 49.3696 4.10799 49.6588 4.69648C49.8511 5.18639 49.8511 6.4612 49.8511 7.04894V15.4812C49.8511 16.9517 49.9473 17.4416 48.4057 17.5402V18.0301C49.1765 18.0301 50.0442 17.9322 50.8149 17.9322C51.6826 17.9322 52.4533 18.0301 53.2241 18.0301V17.5402C51.5857 17.4423 51.6826 16.8538 51.6826 15.3834V12.9323C51.6826 12.1482 51.7787 11.2654 52.1641 10.5791C52.5495 9.69639 53.6095 9.01082 54.5733 9.01082C56.4041 9.01082 56.501 10.8734 56.501 12.246V15.4812C56.501 16.9517 56.5971 17.4416 55.0549 17.5402V18.0301C55.7295 18.0301 56.5964 17.9322 57.3671 17.9322C58.1379 17.9322 59.0056 18.0301 59.8732 18.0301V17.5402C58.1386 17.4423 58.3317 16.8538 58.3317 15.3834V11.3633C58.3317 9.30431 57.1756 8.32375 55.1518 8.32375C53.7064 8.32375 52.5495 9.01007 51.6826 10.1863V2.93176ZM68.3538 15.9711C67.7761 16.8531 66.8123 17.5394 65.6554 17.5394C63.3431 17.5394 62.2832 15.1862 62.2832 13.1272L62.3793 12.0488H68.5476C68.8369 12.0488 69.1253 12.1467 69.1253 11.8524C69.1253 9.49998 67.1015 8.323 64.9808 8.323C62.1863 8.323 60.0663 10.774 60.0663 13.5193C60.0663 16.3624 62.2824 18.225 64.9808 18.225C66.62 18.225 67.8723 17.6365 68.8361 16.3624L68.3538 15.9711ZM62.4755 11.4611C62.7647 10.0885 63.3424 8.81365 64.9808 8.81365C66.3293 8.81365 67.1008 9.69564 67.1008 11.069C67.1008 11.5589 66.4262 11.4611 66.0401 11.4611H62.4755ZM85.8928 4.50007C84.3512 3.61808 83.2905 3.22601 81.4605 3.22601C77.1237 3.22601 73.9437 6.4612 73.9437 10.8734C73.9437 15.3834 76.9313 18.2265 81.2667 18.2265C83.1936 18.2265 84.6405 17.8344 86.0866 16.6582L86.5674 17.7366H86.8566V12.9331H86.4712C85.7966 15.5798 84.7374 17.7366 81.7497 17.7366C77.8952 17.7366 76.6429 14.2071 76.6429 10.8734C76.6429 7.5396 77.7983 3.71667 81.6528 3.71667C84.1597 3.71667 85.8928 5.38355 86.182 7.83459H86.7597L86.5674 3.52101H86.182L85.8928 4.50007ZM92.3496 8.32375C89.7473 8.32375 87.2427 10.3827 87.2427 13.128C87.2427 16.0689 89.5557 18.2257 92.3496 18.2257C95.2403 18.2257 97.6502 16.2654 97.6502 13.2258C97.6502 10.3827 95.048 8.32375 92.3496 8.32375ZM92.3496 8.81441C94.8564 8.81441 95.4341 11.2654 95.4341 13.423C95.4341 15.3834 94.8564 17.7366 92.5434 17.7366C89.9411 17.7366 89.3619 15.3841 89.3619 13.2266C89.3619 11.3633 89.9411 8.81441 92.3496 8.81441ZM101.119 2.93176L97.6502 3.61809V4.10799C98.2279 4.20582 98.8056 4.10799 99.0963 4.69648C99.2886 5.18639 99.2886 6.4612 99.2886 7.04894V15.4812C99.2886 16.9517 99.3855 17.4416 97.8425 17.5402V18.0301C98.614 18.0301 99.3855 17.9322 100.156 17.9322C101.024 17.9322 101.794 18.0301 102.662 18.0301V17.5402C100.927 17.4423 101.216 16.8538 101.119 15.3834V2.93176H101.119Z" fill="#0C0E0F"/>
<path fill-rule="evenodd" clip-rule="evenodd" d="M105.842 2.93176L102.372 3.61809V4.10799C102.854 4.20582 103.529 4.10799 103.818 4.69648C104.01 5.18639 104.01 6.4612 104.01 7.04894V15.4812C104.01 16.9517 104.107 17.4416 102.469 17.5402V18.0301C103.24 18.0301 104.01 17.9322 104.879 17.9322C105.649 17.9322 106.517 18.0301 107.384 18.0301V17.5402C105.649 17.4423 105.843 16.8538 105.843 15.3834V2.93176H105.842Z" fill="#0C0E0F"/>
<path fill-rule="evenodd" clip-rule="evenodd" d="M107.094 9.01014V9.40221C107.48 9.40221 108.443 9.30438 108.54 9.89212C108.636 10.1864 108.636 11.9511 108.636 12.3432V15.4805C108.636 16.951 108.733 17.4409 107.094 17.5395V18.0294C107.961 18.0294 108.83 17.9316 109.696 17.9316C110.468 17.9316 111.238 18.0294 112.01 18.0294V17.5395C110.274 17.4417 110.563 16.8532 110.468 15.3827V8.32381L107.094 9.01014ZM109.31 5.57853C109.985 5.57853 110.467 4.99004 110.467 4.4023C110.467 3.71598 109.985 3.22607 109.31 3.22607C108.636 3.22607 108.155 3.71598 108.155 4.4023C108.155 5.08863 108.733 5.57853 109.31 5.57853Z" fill="#0C0E0F"/>
<path fill-rule="evenodd" clip-rule="evenodd" d="M121.742 11.3633C121.742 9.20647 120.585 8.32373 118.562 8.32373C117.019 8.32373 115.864 8.91222 115.092 10.2849L114.803 8.32373C113.742 8.52014 112.876 8.81364 111.815 9.01005V9.40213C112.49 9.40213 113.069 9.3043 113.262 10.0884C113.358 10.5784 113.358 12.1474 113.358 12.833V15.4804C113.358 16.9509 113.454 17.4408 111.815 17.5394V18.0293C112.684 18.0293 113.454 17.9315 114.322 17.9315C115.092 17.9315 115.961 18.0293 116.731 18.0293V17.5394C114.997 17.4416 115.189 16.8531 115.189 15.3826V11.951C115.189 10.3827 116.25 9.01005 117.983 9.01005C120.007 9.01005 119.91 11.1668 119.91 12.6373V15.4804C119.91 16.9509 120.104 17.4408 118.465 17.5394V18.0293C119.237 18.0293 120.104 17.9315 120.971 17.9315C121.742 17.9315 122.514 18.0293 123.284 18.0293V17.5394C121.645 17.4416 121.742 16.8531 121.742 15.3826V11.3633ZM124.536 17.4416C125.211 18.0301 126.079 18.2257 126.946 18.2257C128.584 18.2257 130.126 17.1473 130.126 15.3826C130.126 13.4222 128.777 12.833 127.235 12.0488C126.464 11.5589 125.211 11.1661 125.211 9.98987C125.211 9.20572 125.886 8.81364 126.657 8.81364C128.007 8.81364 128.488 9.98987 128.874 11.069H129.259L129.354 8.32373H129.065L128.68 8.81364C128.006 8.51939 127.234 8.32373 126.56 8.32373C125.018 8.32373 123.861 9.40213 123.861 10.9712C123.861 12.5402 125.211 13.3236 126.464 14.0107C127.332 14.5006 128.681 14.9913 128.681 16.2661C128.681 17.2467 127.813 17.7366 126.849 17.7366C125.211 17.7366 124.441 16.3639 124.151 14.9913H123.67L123.767 18.1286H123.959L124.536 17.4416ZM47.3458 20.7753C45.8043 19.7948 44.7435 19.4027 42.9128 19.4027C38.5767 19.4027 35.396 22.6379 35.396 27.1486C35.396 31.6579 38.3836 34.501 42.7197 34.501C44.6466 34.501 46.0927 34.0119 47.5381 32.8341L48.0196 34.0111H48.3089V29.109H47.9235C47.2489 31.7565 46.1889 34.0111 43.202 34.0111C39.3474 34.0111 38.0944 30.4824 38.0944 27.1486C38.0944 23.8149 39.2506 19.8926 43.1051 19.8926C45.6112 19.8926 47.345 21.6573 47.7304 24.1091H48.212L48.0196 19.7948H47.7304L47.3458 20.7753ZM53.8995 24.5012C51.2011 24.5012 48.695 26.5602 48.695 29.4033C48.695 32.3442 51.008 34.5003 53.8995 34.5003C56.694 34.5003 59.1032 32.4428 59.1032 29.5011C59.1025 26.658 56.501 24.5012 53.8995 24.5012ZM53.8026 24.9911C56.3087 24.9911 56.8864 27.5415 56.8864 29.5989C56.8864 31.5593 56.3087 34.0111 53.9956 34.0111C51.3934 34.0111 50.8157 31.5593 50.8157 29.5018C50.8149 27.5407 51.3934 24.9911 53.8026 24.9911ZM62.6686 28.9126C62.6686 28.1292 62.6686 27.3443 62.9578 26.658C63.247 25.8731 64.1139 25.1883 64.9816 25.1883C67.1985 25.1883 67.0047 27.4429 67.0047 28.9126V31.7565C67.0047 33.2262 67.1985 33.7169 65.5593 33.8139V34.3046C66.3301 34.206 67.1977 34.206 67.9678 34.206C68.7393 34.206 69.6062 34.206 70.3777 34.3046V33.8139C68.6423 33.7169 68.9316 33.0305 68.8362 31.5593V28.9119C68.8362 28.1285 68.8362 27.3435 69.1254 26.6572C69.5108 25.8723 70.3777 25.1875 71.2446 25.1875C73.4607 25.1875 73.2684 27.4421 73.2684 28.9119V31.7557C73.2684 33.2254 73.3653 33.7161 71.8223 33.8132V34.3038C72.5938 34.2053 73.3653 34.2053 74.1353 34.2053C75.0037 34.2053 75.7738 34.2053 76.5453 34.3038V33.8132C74.9068 33.7161 75.0992 33.0298 75.0992 31.5586V28.5205C75.0992 27.637 75.0992 26.2644 74.5215 25.5781C73.9438 24.7947 72.9799 24.5004 72.0161 24.5004C70.57 24.5004 69.4139 25.1868 68.7393 26.2644C68.257 24.9903 67.0039 24.5004 65.7516 24.5004C64.3063 24.5004 63.2463 25.1868 62.4755 26.2644L62.1863 24.5004C61.1263 24.6961 60.3555 25.0882 59.1987 25.1868V25.6759C59.9694 25.6759 60.5479 25.5773 60.644 26.3622C60.8371 26.8514 60.8371 28.4212 60.8371 29.0097V31.755C60.8371 33.2247 60.9332 33.7153 59.2956 33.8124V34.3031C60.0663 34.2045 60.9332 34.2045 61.7047 34.2045C62.5724 34.2045 63.3432 34.2045 64.1139 34.3031V33.8124C62.3794 33.7153 62.6678 33.029 62.6678 31.5578V28.9126H62.6686Z" fill="#0C0E0F"/>
<path fill-rule="evenodd" clip-rule="evenodd" d="M79.9189 28.9126C79.9189 28.0307 79.9189 27.2458 80.3035 26.4624C80.7858 25.6775 81.6527 25.1883 82.5211 25.1883C84.9296 25.1883 85.5073 27.5415 85.5073 29.5019C85.5073 31.4623 84.8327 33.814 82.5211 33.814C81.6527 33.814 80.8827 33.5197 80.4004 32.932C79.9196 32.3442 79.9196 31.2651 79.9196 30.4817V28.9126H79.9189ZM79.6282 24.5012C78.6644 24.7955 77.6059 25.089 76.4482 25.1875V25.6767C77.2197 25.6767 77.7974 25.5781 77.8943 26.363C78.0867 26.8522 78.0867 28.422 78.0867 29.0105V37.6384C78.0867 39.1081 78.1836 39.6974 76.5451 39.7944V40.1865C77.4121 40.1865 78.2805 40.1865 79.1474 40.0879C79.9189 40.1865 80.7858 40.1865 81.5573 40.1865V39.7944C79.7251 39.6974 79.9189 39.1081 79.9189 37.5398V33.2262C80.7858 34.1097 81.7496 34.5003 83.0019 34.5003C85.7004 34.5003 87.7249 32.2457 87.7249 29.5982C87.7249 26.7558 85.7011 24.5012 82.905 24.5012C81.4604 24.5012 80.4966 25.1875 79.6282 26.3638V24.5012ZM93.6987 32.3442C93.121 32.932 92.1572 33.6183 91.3857 33.6183C90.5187 33.6183 89.941 32.8334 89.941 32.05C89.941 30.2845 92.4464 29.4025 93.6987 28.8148V32.3442ZM91.3857 29.3047C90.0364 29.8925 87.9172 30.6774 87.9172 32.5399C87.9172 33.814 89.0726 34.5003 90.2303 34.5003C91.5795 34.5003 92.8325 33.814 93.7956 32.932C94.0848 33.814 94.7594 34.5003 95.7225 34.5003C96.494 34.5003 97.264 33.7169 97.6494 33.0306L97.264 32.8334C96.9748 33.1291 96.7832 33.5197 96.3002 33.5197C95.5302 33.5197 95.6256 31.8528 95.6256 31.3637V27.7364C95.6256 25.1875 94.4702 24.5012 92.0603 24.5012C91.001 24.5012 88.1088 24.7955 88.1088 26.4616C88.1088 26.9508 88.398 27.245 88.8803 27.245C89.458 27.245 89.7472 26.7558 89.7472 26.2644C89.8441 25.089 90.711 24.9904 91.771 24.9904C93.6033 24.9904 93.6979 26.0695 93.6979 27.6378C93.6979 27.835 93.7948 28.1285 93.5056 28.2256L91.3857 29.3047Z" fill="#0C0E0F"/>
<path fill-rule="evenodd" clip-rule="evenodd" d="M106.806 27.5408C106.806 25.4818 105.649 24.5012 103.626 24.5012C102.083 24.5012 100.927 25.1876 100.156 26.5602L99.7704 24.5012C98.7111 24.6969 97.9396 25.089 96.7842 25.1876V25.6767C97.5542 25.6767 98.1334 25.5781 98.2288 26.363C98.4226 26.8522 98.4226 28.422 98.4226 29.0105V31.7558C98.4226 33.2255 98.5181 33.7162 96.8796 33.8132V34.3039C97.748 34.2053 98.5181 34.2053 99.3865 34.2053C100.156 34.2053 100.928 34.2053 101.699 34.3039V33.8132C100.061 33.7162 100.253 33.0298 100.253 31.5586V28.2248C100.253 26.5595 101.314 25.1868 102.952 25.1868C105.071 25.1868 104.974 27.3429 104.974 28.9112V31.755C104.974 33.2247 105.071 33.7154 103.433 33.8125V34.3031C104.301 34.2046 105.168 34.2046 105.938 34.2046C106.806 34.2046 107.578 34.2046 108.348 34.3031V33.8125C106.613 33.7154 106.806 33.0291 106.806 31.5579V27.5408H106.806V27.5408ZM108.443 25.1876V25.6767C108.829 25.6767 109.792 25.5781 109.888 26.1674C109.985 26.4616 109.985 28.1278 109.985 28.6177V31.7558C109.985 33.2255 110.082 33.7162 108.54 33.8132V34.3039C109.31 34.2053 110.177 34.2053 111.046 34.2053C111.816 34.2053 112.587 34.2053 113.359 34.3039V33.8132C111.623 33.7162 111.912 33.0298 111.816 31.5586V24.5005L108.443 25.1876ZM110.66 21.756C111.335 21.756 111.816 21.2653 111.816 20.5805C111.816 19.9912 111.335 19.4035 110.66 19.4035C109.986 19.4035 109.505 19.9912 109.505 20.5805C109.504 21.2653 110.082 21.756 110.66 21.756V21.756ZM121.645 32.1486C120.971 33.0306 120.007 33.814 118.947 33.814C116.635 33.814 115.575 31.4623 115.575 29.4033V28.3242H121.839C122.031 28.3242 122.32 28.4228 122.32 28.1285C122.32 25.7753 120.393 24.5012 118.273 24.5012C115.381 24.5012 113.358 27.0501 113.358 29.7954C113.358 32.6378 115.574 34.5003 118.273 34.5003C119.91 34.5003 121.067 33.9126 122.128 32.6378L121.645 32.1486V32.1486ZM115.767 27.7364C115.961 26.2652 116.635 24.9912 118.274 24.9912C119.622 24.9912 120.393 25.8731 120.393 27.2458C120.393 27.835 119.622 27.7364 119.332 27.7364H115.767V27.7364ZM123.766 33.7169C124.344 34.2061 125.308 34.5003 126.079 34.5003C127.813 34.5003 129.259 33.4227 129.259 31.5594C129.259 29.599 127.91 29.0105 126.464 28.2256C125.597 27.8343 124.441 27.3436 124.441 26.2652C124.441 25.4818 125.116 24.9912 125.789 24.9912C127.138 24.9912 127.621 26.1681 128.007 27.3444H128.488V24.5991H128.295L127.813 25.0897C127.235 24.6977 126.368 24.502 125.694 24.502C124.248 24.502 122.995 25.6775 122.995 27.1494C122.995 28.8163 124.345 29.5997 125.598 30.1875C126.561 30.6781 127.814 31.1695 127.814 32.4436C127.814 33.5212 126.947 34.0119 125.983 34.0119C124.441 34.0119 123.67 32.6393 123.285 31.1695H122.899L122.996 34.3062H123.188L123.766 33.7169V33.7169ZM10.9189 10.8727H1.86056C3.88437 11.6568 5.5228 13.2259 6.38972 15.0884C7.35354 13.2259 8.89581 11.6568 10.9189 10.8727V10.8727ZM10.1481 16.3632H0.125977C2.34284 17.2452 4.07743 18.9121 5.13741 20.9711C6.19666 18.9128 7.93198 17.246 10.1481 16.3632ZM10.1481 21.5603H0.125977C2.34284 22.4423 4.17359 24.1092 5.13741 26.1681C6.19666 24.1092 7.93198 22.4423 10.1481 21.5603ZM11.4973 27.0501H0.9929C3.40209 27.9321 5.23283 29.6976 6.29356 31.8536C7.35354 29.6976 9.18429 27.9321 11.4973 27.0501ZM11.5935 32.2457H2.72749C4.75129 33.0306 6.29282 34.5003 7.16048 36.3644C8.1243 34.5003 9.66657 33.0306 11.5935 32.2457V32.2457ZM12.1719 6.36341H4.84819C6.48662 7.04973 7.73892 8.22596 8.51043 9.69643C9.28045 8.22596 10.5335 7.04898 12.1719 6.36341ZM18.9179 4.10803H11.1119C12.8465 4.79435 14.1957 6.06841 15.0634 7.7353C15.8342 6.06916 17.1826 4.79435 18.9179 4.10803ZM17.858 0.186523H12.1719C13.425 0.67643 14.4842 1.65699 15.0634 2.83397C15.5449 1.65699 16.6049 0.677183 17.858 0.186523ZM19.3995 8.32379H10.6304C12.5573 9.10794 14.0996 10.4806 15.0634 12.3431C15.9303 10.4806 17.4726 9.10869 19.3995 8.32379ZM25.1817 6.36341H17.858C19.4964 7.04973 20.7487 8.22596 21.5202 9.69643C22.1941 8.22596 23.5433 7.04898 25.1817 6.36341ZM28.1693 10.8727H19.1103C21.0372 11.6568 22.6756 13.2259 23.6394 15.0884C24.5071 13.2259 26.1455 11.6568 28.1693 10.8727ZM29.9032 16.3632H19.881C22.0979 17.2452 23.9286 18.9121 24.8917 20.9711C25.9524 18.9128 27.687 17.246 29.9032 16.3632ZM29.9032 21.5603H19.881C22.0979 22.4423 23.8325 24.1092 24.8917 26.1681C25.8563 24.1092 27.687 22.4423 29.9032 21.5603ZM29.0362 27.0501H18.5326C20.8448 27.9321 22.6763 29.6976 23.7363 31.8536C24.7963 29.6976 26.627 27.9321 29.0362 27.0501ZM27.3016 32.2457H18.4357C20.3626 33.0306 21.9048 34.5003 22.8687 36.3644C23.7363 34.5003 25.2778 33.0306 27.3016 32.2457ZM19.4956 34.1097H10.5335C12.5573 34.8931 14.0988 36.3644 15.0634 38.2269C15.9303 36.3644 17.4726 34.8931 19.4956 34.1097ZM19.4956 29.2062H10.5335C12.5573 29.9911 14.0988 31.4623 15.0634 33.3248C15.9303 31.4623 17.4726 29.9911 19.4956 29.2062ZM20.1702 24.0106H9.85963C12.1719 24.9912 14.0034 26.658 15.0634 28.717C16.0265 26.658 17.858 24.9912 20.1702 24.0106V24.0106ZM20.1702 18.6186H9.85963C12.1719 19.5006 14.0034 21.2653 15.0634 23.3243C16.0265 21.2653 17.858 19.5006 20.1702 18.6186V18.6186ZM20.3633 12.8338H9.66657C11.9796 13.8144 13.9065 15.5791 15.0634 17.8344C16.1226 15.5791 18.0503 13.8144 20.3633 12.8338Z" fill="#0C0E0F"/>
</svg>
