<svg height="156" viewBox="0 0 470 156" width="470" xmlns="http://www.w3.org/2000/svg" xmlns:xlink="http://www.w3.org/1999/xlink"><mask id="a" fill="#fff"><path d="m0 155.948h469.677v-155.948h-469.677z" fill="#fff" fill-rule="evenodd"/></mask><g fill="#004c97" fill-rule="evenodd"><path d="m337.753388 79.9232584c3.052584-.7115565 5.022305-1.9158884 5.917445-2.9083406 1.254023-1.3892952 1.88-3.1485169 1.88-5.2804259 0-1.679163-.414097-3.1712922-1.240221-4.4763876-.826123-1.3037152-1.928311-2.2105874-3.303803-2.7206168-1.374111-.5114097-3.581248-.7667694-6.616578-.7667694h-12.070926v28.4056681h5.734553v-5.3618649-6.4958003-4.5343612-3.6040235-3.6040235h4.476387c2.326535 0 3.720661.0331277 4.18583.0973128.929647.1545961 1.650176.525903 2.160205 1.1132305.50934.5893979.764699 1.3603084.764699 2.3161821 0 .8523495-.193935 1.5625257-.581116 2.1305286-.38787.5686931-.922746.969677-1.608076 1.2029516-.68533.2312041-2.403142.3478414-5.152746.3478414h-3.256182c.89652 2.6481497 8.852702 13.8418796 11.954978 16.3920264h6.858825c-1.755771-1.6867548-5.748355-5.8125404-10.103274-12.2531278m-117.700492 5.3649017c-1.466594 1.6474155-3.343143 2.4700881-5.628268 2.4700881-2.287195 0-4.172716-.8302644-5.657944-2.4887225-1.486608-1.6605286-2.228531-4.0988693-2.228531-7.315022 0-3.2679149.722599-5.7117768 2.170558-7.3336564 1.445198-1.6211894 3.351424-2.4314391 5.715917-2.4314391 2.362423 0 4.258297.7998972 5.686241 2.4017621 1.427254 1.6018649 2.141572 4.0312335 2.141572 7.2860353 0 3.2934508-.734332 5.7642291-2.199545 7.4109545m-5.686931-22.0016594c-2.312732 0-4.353539.3747577-6.122423 1.1242732-1.331322.5548898-2.554978 1.4079295-3.671659 2.5577386-1.118062 1.1498091-1.999398 2.4480029-2.64539 3.8938913-.865462 1.9648899-1.298193 4.3928781-1.298193 7.2860353 0 4.520558 1.245741 8.0700587 3.739295 10.6464317 2.492863 2.576373 5.851879 3.866975 10.075668 3.866975 4.172716 0 7.504126-1.2961233 9.99768-3.8856094 2.492863-2.5901762 3.739985-6.178326 3.739985-10.7637592 0-4.6240822-1.256094-8.2343171-3.768972-10.831395-2.512188-2.5956975-5.861542-3.8945815-10.045991-3.8945815m64.132639 11.5097548c-.432732.6328781-1.030412 1.0987372-1.79304 1.3948165-.761938.2974596-2.273392.4458443-4.533671.4458443h-3.139545v-8.0597063h2.770999c2.066343 0 3.442525.064185 4.127165.1925551.930338.1690895 1.697798.5887077 2.30583 1.2602349.608032.6722173.910323 1.5231865.910323 2.5577386 0 .8399266-.21533 1.5756388-.648061 2.2085169m.823362-10.5988106c-1.059398-.2843465-3.33279-.4258296-6.820176-.4258296h-9.203994v28.4049779h5.734552v-10.7154478h3.739985c2.595698 0 4.579222-.1359618 5.947812-.4071953 1.008326-.2194714 2.000088-.6666961 2.974597-1.3465052.975198-.6770484 1.779926-1.6101468 2.412114-2.7992951.632878-1.187768.950353-2.6543613.950353-4.3983994 0-2.2609692-.549369-4.1043906-1.646726-5.5316447-1.099427-1.4279442-2.461806-2.3548311-4.088517-2.7806608m28.709339 21.0907152c-1.465903 1.6474155-3.343142 2.4700881-5.628267 2.4700881-2.287195 0-4.172716-.8302644-5.657944-2.4887225-1.486608-1.6605286-2.228532-4.0988693-2.228532-7.315022 0-3.2679149.72329-5.7117768 2.170558-7.3336564 1.445199-1.6211894 3.352115-2.4314391 5.715918-2.4314391 2.363113 0 4.258987.7998972 5.686931 2.4017621 1.426564 1.6018649 2.141571 4.0312335 2.141571 7.2860353 0 3.2934508-.733641 5.7642291-2.200235 7.4109545m-5.68624-22.0016594c-2.313422 0-4.353539.3747577-6.123113 1.1242732-1.330632.5548898-2.554288 1.4079295-3.67166 2.5577386-1.117371 1.1498091-1.999398 2.4480029-2.645389 3.8938913-.865462 1.9648899-1.298194 4.3928781-1.298194 7.2860353 0 4.520558 1.246432 8.0700587 3.739986 10.6464317 2.492173 2.576373 5.851879 3.866975 10.074978 3.866975 4.172716 0 7.504816-1.2961233 9.99837-3.8856094 2.492173-2.5901762 3.739295-6.178326 3.739295-10.7637592 0-4.6240822-1.256094-8.2343171-3.768972-10.831395-2.512188-2.5956975-5.861542-3.8945815-10.045301-3.8945815m56.2365 17.6510881 3.836608-10.5401468 3.913906 10.5401468zm.871674-17.1656975-11.063979 28.4042878h6.083774l2.345169-6.4516299h11.353847l2.47975 6.4516299h6.239751l-11.373862-28.4042878z"/><path d="m375.945 68.577h8.429v23.599h5.734v-23.599h8.41v-4.805h-22.573z"/><path d="m403.038 92.177h5.735v-28.405h-5.735z" mask="url(#a)"/><path d="m433.489696 85.2881601c-1.466593 1.6474155-3.343833 2.4700881-5.628957 2.4700881-2.287196 0-4.172717-.8302644-5.657945-2.4887225-1.486608-1.6605286-2.227841-4.0988693-2.227841-7.315022 0-3.2679149.722599-5.7117768 2.169868-7.3336564 1.445198-1.6211894 3.352114-2.4314391 5.715918-2.4314391 2.363113 0 4.258986.7998972 5.686931 2.4017621 1.426563 1.6018649 2.14019 4.0312335 2.14019 7.2860353 0 3.2934508-.733641 5.7642291-2.198164 7.4109545m-5.686931-22.0016594c-2.313421 0-4.353539.3747577-6.122423 1.1242732-1.331321.5548898-2.554978 1.4079295-3.672349 2.5577386-1.117372 1.1498091-1.998708 2.4480029-2.644699 3.8938913-.866153 1.9648899-1.298884 4.3928781-1.298884 7.2860353 0 4.520558 1.246431 8.0700587 3.739985 10.6464317 2.492173 2.576373 5.85188 3.866975 10.075668 3.866975 4.170646 0 7.504126-1.2961233 9.99768-3.8856094 2.492173-2.5901762 3.739295-6.178326 3.739295-10.7637592 0-4.6240822-1.255404-8.2343171-3.768282-10.831395-2.512878-2.5956975-5.862232-3.8945815-10.045991-3.8945815m36.545433.4853216v19.3818062l-11.62439-19.3818062h-5.580646v28.4042878h5.328737v-18.522555l9.773377 15.8102202c1.233319 1.8434215 3.031189 2.7123348 4.385977 2.7123348h3.045682v-28.4042878zm-215.246197 16.1514361c3.052585-.7115565 5.022306-1.9158884 5.917445-2.9083406 1.254024-1.3892952 1.88-3.1485169 1.88-5.2804259 0-1.679163-.414097-3.1712922-1.24022-4.4763876-.826123-1.3037152-1.928311-2.2105874-3.303803-2.7206168-1.374112-.5114097-3.581248-.7667694-6.617269-.7667694h-12.070235v28.4056681h5.734552v-5.3618649-6.4958003-4.5343612-3.6040235-3.6040235h4.476388c2.325844 0 3.720661.0331277 4.18583.0973128.929647.1545961 1.650176.525903 2.159515 1.1132305.510029.5893979.765389 1.3603084.765389 2.3161821 0 .8523495-.193935 1.5625257-.581116 2.1305286-.387871.5686931-.922746.969677-1.608076 1.2029516-.685331.2312041-2.403143.3478414-5.153436.3478414h-3.256182c.896519 2.6481497 8.853392 13.8418796 11.955668 16.3920264h6.858825c-1.755771-1.6867548-5.748355-5.8125404-10.103275-12.2531278m-64.965801-11.7344713c1.524567 0 2.818619.42721 3.884229 1.2795594.674288.5397064 1.186387 1.2188253 1.569427 2.0069898h6.167974c-.645301-2.2092071-1.597034-3.9173569-2.864171-5.1085757-2.169868-2.0532305-4.992628-3.0795007-8.467591-3.0795007-3.976711 0-7.188033 1.3071659-9.629134 3.9235683-2.441101 2.6164023-3.662687 6.2873715-3.662687 11.014978 0 4.4687959 1.215374 7.9934508 3.643362 10.5698238 2.428679 2.5763729 5.528884 3.8649045 9.300617 3.8649045 3.048444 0 5.564773-.7515859 7.546226-2.2575183 1.833759-1.3920558 3.16163-3.4956682 4.028473-6.2521733h-6.163142c-.420309.8847871-.924127 1.614978-1.5363 2.1546843-1.097357.9689868-2.409354 1.4541703-3.933921 1.4541703-2.066343 0-3.745506-.7626285-5.036798-2.2871953-1.292673-1.5245668-1.937974-4.0823054-1.937974-7.6732159 0-3.3845521.655653-5.8311747 1.96696-7.3426284 1.310617-1.5114538 3.018767-2.2678708 5.12445-2.2678708m-37.13566-26.4771498-6.005785 14.6818062-31.288473.0193245 6.076182-15.0710573c12.943979 0 28.58304.0013803 31.029662.0013803-13.11652-24.5959765-39.016901-41.34343608-68.8380908-41.34343608-29.8184287 0-55.71674 16.74400878-68.83395003 41.33722468h5.13066083.0138032l18.4169603-.0013803c4.5350514 0 7.3025992 2.1553744 8.2453598 5.1624082l18.6177974 52.661395 1.8793098 5.9015715 2.1712482-6.1534805 16.4444787-42.1253891c3.3728194-8.1080176 3.7593098-15.4451248 20.9705576-15.4451248h6.185918l-15.3015711 37.3922614 38.4385461.0006901-6.172805 15.0565639-38.4344048.0151836-18.7965492 45.9302494h-11.4718649l-35.2589721-87.2350365c-2.2837445-5.3473715-5.5585609-7.3267548-12.29867841-8.7788546-5.06647577 10.3413803-7.92029369 21.9637004-7.92029369 34.2561674 0 43.0633187 34.9104405 77.9737587 77.9744493 77.9737587s77.9744498-34.91044 77.9744498-77.9737587c0-13.0951249-3.24376-25.4276212-8.947945-36.262467" mask="url(#a)"/></g></svg>