<svg width="56" height="56" viewBox="0 0 56 56" fill="none" xmlns="http://www.w3.org/2000/svg">
<g clip-path="url(#clip0_53_14)">
<path d="M47.3759 17.5666L44.7467 14.3768C44.3857 13.9388 44.1661 13.4091 44.1122 12.8447L43.7157 8.72988C43.5098 6.59195 41.8085 4.89067 39.6706 4.68474L35.5558 4.28868C34.9914 4.23442 34.4616 4.01482 34.0237 3.65422L30.8339 1.02453C29.1766 -0.341365 26.7708 -0.341365 25.1135 1.02453L21.9237 3.65422C21.4862 4.01482 20.9564 4.23442 20.3916 4.28868L16.2768 4.68474C14.1389 4.89067 12.438 6.59195 12.2317 8.72988L11.8356 12.8447C11.7814 13.4091 11.5618 13.9388 11.2012 14.3768L8.57148 17.5666C7.20558 19.2239 7.20558 21.6297 8.57148 23.2869L11.2012 26.4768C11.5618 26.9147 11.7814 27.4445 11.8356 28.0089L12.2317 32.1236C12.4376 34.2616 14.1389 35.9624 16.2768 36.1688L18.792 36.411L12.8162 50.6908C12.6542 51.0796 12.7273 51.5171 13.0071 51.8324C13.287 52.1473 13.7121 52.2721 14.1163 52.1571L19.3009 50.6934C19.3235 50.687 19.3453 50.6968 19.3556 50.7152L21.9519 55.4362C22.145 55.7878 22.5061 55.9998 22.9034 55.9998C22.9222 55.9998 22.941 55.9993 22.9602 55.9985C23.3802 55.9771 23.7434 55.7233 23.9096 55.332L30.2187 40.2545C30.4327 40.1315 30.6386 39.9901 30.8343 39.829L34.0241 37.1997C34.4279 36.8665 34.9111 36.6558 35.4268 36.5824L41.1412 50.2367L37.0973 49.0951C36.3283 48.8785 35.5229 49.2155 35.1371 49.9149L33.1124 53.5965L30.4297 47.1857C30.2524 46.7623 29.7662 46.5632 29.3428 46.7401C28.9198 46.917 28.7203 47.4036 28.8976 47.8266L32.04 55.3362C32.2045 55.7233 32.5672 55.9771 32.9876 55.9985C33.0069 55.9993 33.0257 56.0002 33.0445 56.0002C33.4418 56.0002 33.8028 55.7878 33.9959 55.4362L36.5919 50.716C36.6025 50.6968 36.6248 50.6878 36.6466 50.6934L41.8303 52.1571C42.2353 52.2716 42.6609 52.1473 42.9403 51.8324C43.2201 51.5171 43.2932 51.08 43.1308 50.69L37.1554 36.4106L39.6706 36.1684C41.8085 35.9624 43.5098 34.2616 43.7157 32.1236L44.1122 28.0084C44.1661 27.444 44.3857 26.9147 44.7467 26.4768L47.3759 23.2869C48.7423 21.6297 48.7423 19.2239 47.3759 17.5666V17.5666ZM22.8355 53.5965L20.8103 49.9141C20.4249 49.2151 19.6187 48.878 18.8501 49.0951L14.8067 50.2362L20.5206 36.5824C21.0368 36.6558 21.52 36.8665 21.9237 37.1993L25.1135 39.829C25.9424 40.5122 26.9579 40.8535 27.9739 40.8535C28.0393 40.8535 28.1042 40.8518 28.1696 40.8488L22.8355 53.5965ZM46.0946 22.2308L43.4654 25.4206C42.8929 26.1145 42.5451 26.9544 42.4588 27.8495L42.0627 31.9643C41.9328 33.3127 40.86 34.3855 39.5117 34.5154L35.8972 34.8636C35.8831 34.8644 35.8685 34.8657 35.8544 34.8678L35.3969 34.9118C34.5014 34.9981 33.6614 35.3459 32.9676 35.918L29.7778 38.5473C28.7327 39.409 27.2151 39.409 26.1701 38.5473L22.9803 35.918C22.2865 35.3459 21.4465 34.9977 20.551 34.9118L20.0913 34.8674C20.0785 34.8657 20.0661 34.8648 20.0532 34.864L16.4362 34.5154C15.0878 34.3855 14.015 33.3127 13.8851 31.9643L13.4891 27.8499C13.4028 26.9544 13.055 26.1145 12.4825 25.4206L9.85322 22.2308C8.99146 21.1853 8.99146 19.6678 9.85322 18.6227L12.4825 15.4329C13.055 14.7391 13.4028 13.8991 13.4891 13.0036L13.8851 8.88882C14.015 7.54044 15.0878 6.46763 16.4362 6.33774L20.551 5.94169C21.4465 5.85538 22.2865 5.50761 22.9803 4.93553L26.1701 2.30627C26.6926 1.87561 27.3335 1.65985 27.9739 1.65985C28.6144 1.65985 29.2552 1.87518 29.7778 2.30627L32.9676 4.93553C33.6614 5.50761 34.5014 5.85581 35.3969 5.94169L39.5117 6.33774C40.86 6.46763 41.9328 7.54044 42.0627 8.88882L42.4588 13.0036C42.5451 13.8991 42.8929 14.7391 43.4654 15.4329L46.0946 18.6227C46.956 19.6682 46.956 21.1853 46.0946 22.2308V22.2308Z" fill="black"/>
<path d="M27.9739 7.45457C27.4194 7.45457 26.8614 7.4896 26.3145 7.55967C25.8599 7.61777 25.5382 8.03391 25.5963 8.4885C25.6544 8.94351 26.071 9.2648 26.5252 9.20712C27.002 9.14603 27.4894 9.11526 27.9739 9.11526C34.2113 9.11526 39.2857 14.1896 39.2857 20.427C39.2857 26.6643 34.2108 31.7383 27.9739 31.7383C21.7366 31.7383 16.6622 26.6639 16.6622 20.4266C16.6622 15.9777 19.2855 11.9252 23.3452 10.1022C23.7634 9.91464 23.9506 9.42288 23.7626 9.00461C23.5746 8.58591 23.0828 8.3992 22.665 8.58719C18.0093 10.6777 15.0015 15.3248 15.0015 20.4266C15.0015 27.5799 20.821 33.399 27.9739 33.399C35.1269 33.399 40.9464 27.5799 40.9464 20.4266C40.9464 13.2736 35.1269 7.45457 27.9739 7.45457V7.45457Z" fill="black"/>
<path d="M19.7268 19.4649C18.7368 20.4548 18.7368 22.0659 19.7268 23.0559L23.3537 26.6832C23.8334 27.1626 24.4709 27.4266 25.1494 27.4266C25.8274 27.4266 26.4653 27.1626 26.9451 26.6832L34.8624 18.7655C35.8523 17.7751 35.8523 16.1644 34.8624 15.174C33.8724 14.1841 32.2613 14.1841 31.2709 15.174L25.1494 21.296L23.3178 19.4649C22.3278 18.4749 20.7167 18.4749 19.7268 19.4649ZM25.1494 23.3011C25.3694 23.3011 25.5805 23.2135 25.7364 23.0576L32.4454 16.3485C32.7881 16.0059 33.3452 16.0063 33.6879 16.3485C34.0305 16.6912 34.0305 17.2487 33.6879 17.591L25.7706 25.5087C25.6048 25.6745 25.3839 25.7659 25.1494 25.7659C24.9144 25.7659 24.6939 25.6745 24.5282 25.5087L20.9008 21.8818C20.5586 21.5391 20.5586 20.9816 20.9008 20.6394C21.0722 20.468 21.2973 20.3822 21.5225 20.3822C21.7472 20.3822 21.9724 20.468 22.1433 20.6389L24.5619 23.0576C24.7178 23.2135 24.9289 23.3011 25.1494 23.3011Z" fill="black"/>
</g>
<defs>
<clipPath id="clip0_53_14">
<rect width="56" height="56" fill="white"/>
</clipPath>
</defs>
</svg>
