<svg width="53" height="53" viewBox="0 0 53 53" fill="none" xmlns="http://www.w3.org/2000/svg">
<g clip-path="url(#clip0_53_9)">
<path d="M49.0133 14.3801L49.0117 14.3389C48.9886 13.8298 48.9733 13.2912 48.964 12.692C48.9207 9.76967 46.5977 7.35243 43.675 7.18907C37.5813 6.849 32.8673 4.86199 28.8395 0.936092L28.8052 0.903339C27.4914 -0.30124 25.5096 -0.30124 24.1955 0.903339L24.1611 0.936092C20.1333 4.86199 15.4193 6.849 9.32567 7.18947C6.40339 7.35243 4.07995 9.76967 4.03669 12.6924C4.02779 13.2876 4.01202 13.8262 3.98897 14.3389L3.98655 14.4347C3.86807 20.6485 3.72088 28.3818 6.30796 35.401C7.73049 39.261 9.8849 42.6164 12.7109 45.3745C15.9296 48.5155 20.1455 51.0092 25.2412 52.786C25.4069 52.8438 25.5792 52.8907 25.7547 52.9259C26.0022 52.9752 26.2512 52.9999 26.5003 52.9999C26.7494 52.9999 26.9989 52.9752 27.246 52.9259C27.4214 52.8907 27.5949 52.8434 27.7615 52.7851C32.8512 51.0052 37.0625 48.5103 40.2784 45.3696C43.1032 42.6107 45.2576 39.2546 46.6814 35.3938C49.2781 28.3535 49.1314 20.6056 49.0133 14.3801ZM43.7635 34.3178C41.0349 41.7159 35.4649 46.7966 26.7353 49.8495C26.7041 49.86 26.671 49.8693 26.6366 49.8762C26.5464 49.894 26.4546 49.894 26.3632 49.8758C26.3293 49.8689 26.2961 49.86 26.2654 49.8495C17.5264 46.8023 11.9528 41.7244 9.2262 34.3259C6.84171 27.8557 6.97676 20.7569 7.09605 14.4942L7.09686 14.4594C7.12112 13.9212 7.13729 13.3575 7.14619 12.7381C7.1656 11.4405 8.19913 10.3669 9.49914 10.2945C12.9475 10.1021 15.9769 9.43567 18.7605 8.25738C21.5405 7.0807 24.0095 5.42203 26.3078 3.18674C26.4247 3.08808 26.5763 3.08767 26.6928 3.18674C28.9916 5.42203 31.4606 7.0807 34.2401 8.25738C37.0237 9.43567 40.0532 10.1021 43.5019 10.2945C44.8019 10.3669 45.8355 11.4405 45.8545 12.7385C45.8638 13.3612 45.8799 13.9248 45.9042 14.4594C46.0231 20.7294 46.1549 27.8339 43.7635 34.3178Z" fill="black"/>
<path d="M26.4995 13.2925C19.2162 13.2925 13.2911 19.2179 13.2911 26.5008C13.2911 33.7841 19.2162 39.7096 26.4995 39.7096C33.7824 39.7096 39.7078 33.7841 39.7078 26.5008C39.7078 19.2179 33.7824 13.2925 26.4995 13.2925ZM26.4995 36.5993C20.9311 36.5993 16.4011 32.0692 16.4011 26.5008C16.4011 20.9324 20.9311 16.4024 26.4995 16.4024C32.0675 16.4024 36.5975 20.9324 36.5975 26.5008C36.5975 32.0692 32.0675 36.5993 26.4995 36.5993Z" fill="black"/>
<path d="M30.2956 22.4002L24.1607 28.5351L22.4956 26.87C21.8882 26.2627 20.9036 26.2627 20.2963 26.87C19.6893 27.4773 19.6893 28.462 20.2963 29.0689L23.0613 31.8339C23.3649 32.1376 23.7628 32.2892 24.1607 32.2892C24.5586 32.2892 24.9565 32.1376 25.2602 31.8339L32.4949 24.5991C33.1019 23.9918 33.1019 23.0072 32.4949 22.4002C31.8876 21.7925 30.903 21.7925 30.2956 22.4002Z" fill="black"/>
</g>
<defs>
<clipPath id="clip0_53_9">
<rect width="53" height="53" fill="white"/>
</clipPath>
</defs>
</svg>
