<svg width="53" height="53" viewBox="0 0 53 53" fill="none" xmlns="http://www.w3.org/2000/svg">
<g clip-path="url(#clip0_53_5)">
<path d="M38.2937 29.0361L34.7615 32.5682L31.2257 29.0324L39.7092 20.5488C40.6419 20.8114 41.5939 20.9398 42.5406 20.9397C45.2647 20.9395 47.9392 19.8752 49.9373 17.8771C52.8764 14.938 53.7952 10.5366 52.2782 6.66396L51.4131 4.45523L45.8605 10.0079L43.6186 9.40708L43.0178 7.16503L48.5702 1.61248L46.3618 0.747425C42.4895 -0.769344 38.088 0.149408 35.1487 3.08848C32.4563 5.7809 31.4592 9.70039 32.4771 13.3164L23.9935 21.8L12.6013 10.4078L15.6238 7.38541L6.25569 0.00135231L0 6.25694L7.38395 15.6251L10.4065 12.6026L21.7987 23.9949L14.3097 31.4839C10.4203 30.2655 6.17695 31.2834 3.24947 34.2109C1.17058 36.2898 0.0256588 39.0538 0.0256588 41.9937C0.0256588 44.9336 1.17058 47.6976 3.24947 49.7765C5.39519 51.9222 8.21362 52.995 11.0323 52.995C13.8508 52.995 16.6694 51.9222 18.8151 49.7765C21.7426 46.849 22.7604 42.6056 21.5421 38.7163L29.0311 31.2272L32.567 34.7631L29.0348 38.2952L41.8222 51.0825C43.0588 52.3191 44.7029 53.0001 46.4517 53.0001C48.2005 53.0001 49.8446 52.3191 51.0812 51.0825C53.6338 48.5298 53.6338 44.3764 51.0812 41.8236L38.2937 29.0361ZM4.14504 6.50163L6.50038 4.14629L10.9589 7.66062L7.65937 10.9602L4.14504 6.50163ZM36.0682 14.1149L35.6978 13.1693C34.6308 10.4455 35.2767 7.35002 37.3435 5.28314C38.7773 3.84935 40.7057 3.09976 42.6627 3.13059L39.5559 6.23749L41.0843 11.9413L46.7882 13.4698L49.8949 10.363C49.9262 12.3195 49.1762 14.2484 47.7424 15.6822C45.6755 17.7489 42.5801 18.395 39.8563 17.3278L38.9108 16.9575L29.0309 26.8374L26.1882 23.9946L36.0682 14.1149ZM17.9096 37.959L18.3149 38.921C19.5695 41.898 18.9043 45.2976 16.6202 47.5816C15.0793 49.1224 13.0561 49.8927 11.0322 49.8925C9.00874 49.8924 6.98459 49.1221 5.44412 47.5816C3.95157 46.089 3.12945 44.1046 3.12945 41.9936C3.12945 39.8826 3.95146 37.8982 5.44412 36.4056C6.96193 34.8879 8.9716 34.085 11.0232 34.085C12.059 34.085 13.1059 34.2898 14.1047 34.7108L15.0667 35.1162L23.9934 26.1895L26.8362 29.0323L17.9096 37.959ZM38.2937 33.4255L41.1365 36.2684L36.2671 41.1378L33.4244 38.295L38.2937 33.4255ZM48.8864 48.8878C48.236 49.538 47.3714 49.8962 46.4517 49.8962C45.532 49.8962 44.6673 49.538 44.017 48.8878L38.4619 43.3326L43.3313 38.4632L48.8864 44.0184C50.2289 45.3608 50.2289 47.5452 48.8864 48.8878V48.8878Z" fill="black"/>
<path d="M11.032 36.8788C9.66602 36.8788 8.38174 37.4108 7.41591 38.3767C6.44998 39.3427 5.91797 40.6269 5.91797 41.9929C5.91797 43.3589 6.44998 44.6431 7.4158 45.609C8.38174 46.5749 9.66602 47.107 11.032 47.107C12.3981 47.107 13.6823 46.5749 14.6483 45.609C16.6421 43.6151 16.6421 40.3706 14.6483 38.3767C13.6824 37.4108 12.3981 36.8788 11.032 36.8788V36.8788ZM12.4535 43.4143C12.0738 43.7939 11.569 44.003 11.0321 44.003C10.4952 44.003 9.99048 43.7939 9.61077 43.4143C9.23117 43.0345 9.02207 42.5297 9.02207 41.9929C9.02207 41.456 9.23117 40.9512 9.61088 40.5715C9.99048 40.1918 10.4953 39.9828 11.0323 39.9828C11.5691 39.9828 12.0739 40.1919 12.4536 40.5715C13.2372 41.3552 13.2372 42.6305 12.4535 43.4143Z" fill="black"/>
</g>
<defs>
<clipPath id="clip0_53_5">
<rect width="53" height="53" fill="white"/>
</clipPath>
</defs>
</svg>
